<svg width="162" height="131" viewBox="0 0 162 131" fill="none" xmlns="http://www.w3.org/2000/svg">
<g clip-path="url(#clip0_5_124)">
<path d="M51.5601 4.99973C34.3246 12.163 24.4335 29.5772 24.4335 53.8035C24.4335 78.0298 19.385 74.8322 12.8884 87.0975C8.24959 95.855 10.7826 111.109 16.7445 118.221C25.0038 128.072 39.2082 132.113 55.1882 130.739C81.1418 128.509 82.8916 105.122 121.44 114.709C139.793 119.274 156.285 103.522 161.264 81.05C164.251 67.5672 158 49.2633 145.163 41.992C127.667 32.0822 128.204 40.5579 108.826 19.1243C87.9982 -3.91234 70.1117 -2.71065 51.5601 4.99973Z" fill="#F3F5FD"/>
<path d="M143.664 52.6604C148.6 52.6604 152.602 48.664 152.602 43.7342C152.602 38.8044 148.6 34.808 143.664 34.808C138.729 34.808 134.727 38.8044 134.727 43.7342C134.727 48.664 138.729 52.6604 143.664 52.6604Z" fill="#0CBC8B"/>
<g opacity="0.29">
<path opacity="0.29" d="M143.664 49.5206C146.864 49.5206 149.458 46.9299 149.458 43.7342C149.458 40.5385 146.864 37.9479 143.664 37.9479C140.465 37.9479 137.871 40.5385 137.871 43.7342C137.871 46.9299 140.465 49.5206 143.664 49.5206Z" fill="white"/>
</g>
<path d="M141.769 45.801L142.31 44.964C142.642 45.2602 143.066 45.4348 143.511 45.4592C143.989 45.4592 144.199 45.2611 144.199 44.8781C144.199 44.0122 141.974 44.0278 141.974 42.5089C141.974 41.5327 142.651 40.9107 143.719 40.9107C144.023 40.9063 144.323 40.9679 144.6 41.0911C144.878 41.2144 145.124 41.3965 145.324 41.6246L144.704 42.3339C144.587 42.2055 144.446 42.1018 144.288 42.0288C144.131 41.9559 143.96 41.9152 143.786 41.9091C143.381 41.9091 143.161 42.0724 143.161 42.4505C143.161 43.2532 145.386 43.1832 145.386 44.7915C145.386 45.758 144.745 46.4575 143.512 46.4575C142.873 46.4434 142.258 46.2118 141.769 45.801ZM143.251 40.0857H144.073V41.2977H143.251V40.0857ZM143.251 45.952H144.073V47.283H143.251V45.952Z" fill="white"/>
<path d="M128.733 68.5732C131.933 68.5732 134.527 65.9825 134.527 62.7868C134.527 59.5911 131.933 57.0005 128.733 57.0005C125.534 57.0005 122.94 59.5911 122.94 62.7868C122.94 65.9825 125.534 68.5732 128.733 68.5732Z" fill="#0CBC8B"/>
<g opacity="0.29">
<path opacity="0.29" d="M128.733 66.5378C130.808 66.5378 132.489 64.8584 132.489 62.7868C132.489 60.7152 130.808 59.0358 128.733 59.0358C126.659 59.0358 124.978 60.7152 124.978 62.7868C124.978 64.8584 126.659 66.5378 128.733 66.5378Z" fill="white"/>
</g>
<path d="M127.504 64.1266L127.855 63.584C128.07 63.776 128.345 63.8892 128.634 63.905C128.943 63.905 129.079 63.7768 129.079 63.5283C129.079 62.9669 127.637 62.977 127.637 61.9926C127.637 61.3599 128.076 60.9565 128.769 60.9565C128.965 60.9536 129.16 60.9935 129.34 61.0735C129.519 61.1534 129.679 61.2714 129.808 61.4194L129.407 61.8791C129.331 61.7959 129.24 61.7287 129.138 61.6814C129.035 61.6341 128.925 61.6077 128.812 61.6037C128.549 61.6037 128.407 61.7091 128.407 61.9546C128.407 62.4749 129.849 62.4296 129.849 63.4731C129.849 64.0996 129.434 64.5529 128.634 64.5529C128.22 64.5436 127.821 64.3932 127.504 64.1266ZM128.465 60.4218H128.998V61.2076H128.465V60.4218ZM128.465 64.2247H128.998V65.0868H128.465V64.2247Z" fill="white"/>
<path d="M68.1944 16.341L9.15527e-05 38.036L27.0596 122.885L95.2539 101.19L68.1944 16.341Z" fill="#C1D8ED"/>
<g opacity="0.61">
<path opacity="0.61" d="M23.098 92.7194C23.0349 92.7196 22.9735 92.6996 22.9226 92.6625C22.8717 92.6254 22.834 92.5729 22.815 92.5129L14.8019 67.3856C14.7901 67.3485 14.7856 67.3094 14.7889 67.2706C14.7922 67.2318 14.8031 67.194 14.821 67.1594C14.8389 67.1248 14.8635 67.0941 14.8933 67.0689C14.9231 67.0438 14.9575 67.0248 14.9947 67.013L72.7427 48.6416C72.8178 48.6177 72.8992 48.6246 72.9692 48.6607C73.0391 48.6968 73.0919 48.7592 73.1158 48.8341L81.1285 73.9614C81.1405 73.9985 81.145 74.0376 81.1418 74.0764C81.1386 74.1153 81.1277 74.1531 81.1098 74.1877C81.0919 74.2223 81.0673 74.2531 81.0374 74.2782C81.0075 74.3032 80.973 74.3221 80.9357 74.3338L23.1881 92.7054C23.159 92.7147 23.1286 92.7194 23.098 92.7194ZM15.4575 67.4881L23.2903 92.05L80.4722 73.8589L72.6384 49.2968L15.4575 67.4881Z" fill="white"/>
</g>
<g opacity="0.61">
<path opacity="0.61" d="M24.8484 98.2083C24.7775 98.2084 24.7089 98.1831 24.655 98.137C24.6011 98.091 24.5655 98.0272 24.5546 97.9572C24.5437 97.8872 24.5583 97.8156 24.5956 97.7554C24.633 97.6951 24.6907 97.6502 24.7583 97.6288L82.506 79.2574C82.5811 79.2336 82.6625 79.2404 82.7325 79.2766C82.8024 79.3127 82.8551 79.3751 82.879 79.4501C82.9029 79.525 82.896 79.6064 82.8598 79.6762C82.8237 79.7461 82.7612 79.7988 82.6861 79.8226L24.9386 98.1934C24.9095 98.2031 24.8791 98.2081 24.8484 98.2083Z" fill="white"/>
</g>
<g opacity="0.61">
<path opacity="0.61" d="M26.3151 102.808C26.2443 102.808 26.1759 102.782 26.1222 102.736C26.0685 102.69 26.033 102.626 26.0222 102.557C26.0113 102.487 26.0258 102.415 26.063 102.355C26.1002 102.295 26.1577 102.25 26.2252 102.228L83.9727 83.8571C84.0101 83.8444 84.0496 83.8393 84.089 83.8421C84.1283 83.8449 84.1667 83.8555 84.2019 83.8732C84.2371 83.891 84.2684 83.9156 84.294 83.9456C84.3196 83.9756 84.3389 84.0104 84.3509 84.0479C84.3629 84.0855 84.3672 84.125 84.3637 84.1643C84.3602 84.2035 84.3489 84.2417 84.3305 84.2765C84.312 84.3113 84.2868 84.3421 84.2563 84.3671C84.2258 84.3921 84.1907 84.4108 84.1528 84.422L26.4053 102.794C26.3761 102.803 26.3457 102.808 26.3151 102.808Z" fill="white"/>
</g>
<g opacity="0.61">
<path opacity="0.61" d="M27.782 107.407C27.7112 107.407 27.6427 107.382 27.589 107.336C27.5352 107.29 27.4997 107.226 27.4888 107.156C27.478 107.086 27.4924 107.015 27.5297 106.955C27.5669 106.894 27.6244 106.849 27.6918 106.828L85.4394 88.4563C85.5144 88.4324 85.5959 88.4393 85.6659 88.4754C85.7358 88.5115 85.7886 88.5739 85.8125 88.6488C85.8364 88.7238 85.8295 88.8052 85.7934 88.875C85.7572 88.9449 85.6948 88.9976 85.6197 89.0215L27.8724 107.393C27.8432 107.402 27.8127 107.407 27.782 107.407Z" fill="white"/>
</g>
<g opacity="0.61">
<path opacity="0.61" d="M29.2489 112.007C29.1781 112.007 29.1096 111.982 29.0559 111.936C29.0021 111.89 28.9666 111.826 28.9557 111.756C28.9449 111.686 28.9593 111.615 28.9965 111.554C29.0338 111.494 29.0913 111.449 29.1587 111.428L86.9065 93.056C86.9437 93.0442 86.9828 93.0398 87.0216 93.0431C87.0605 93.0463 87.0983 93.0572 87.133 93.0751C87.1676 93.093 87.1984 93.1175 87.2235 93.1473C87.2486 93.1771 87.2677 93.2115 87.2795 93.2486C87.2913 93.2857 87.2957 93.3248 87.2924 93.3636C87.2891 93.4024 87.2782 93.4402 87.2603 93.4748C87.2424 93.5094 87.2178 93.5401 87.188 93.5652C87.1582 93.5903 87.1238 93.6094 87.0866 93.6212L29.339 111.993C29.3099 112.002 29.2795 112.007 29.2489 112.007Z" fill="white"/>
</g>
<g opacity="0.61">
<path opacity="0.61" d="M13.5521 62.7868C13.4813 62.7867 13.4128 62.7614 13.3591 62.7153C13.3053 62.6693 13.2698 62.6056 13.259 62.5357C13.2481 62.4658 13.2626 62.3943 13.2998 62.3341C13.337 62.274 13.3945 62.2291 13.4619 62.2075L71.2097 43.8361C71.2848 43.8122 71.3662 43.8191 71.4362 43.8553C71.5061 43.8914 71.5588 43.9538 71.5827 44.0288C71.6066 44.1037 71.5997 44.1851 71.5635 44.2549C71.5274 44.3248 71.4649 44.3774 71.3898 44.4013L13.6423 62.7729C13.6131 62.7821 13.5827 62.7868 13.5521 62.7868Z" fill="white"/>
</g>
<g opacity="0.61">
<path opacity="0.61" d="M30.7523 51.487C30.6815 51.4869 30.613 51.4615 30.5593 51.4155C30.5055 51.3694 30.47 51.3057 30.4592 51.2358C30.4483 51.166 30.4627 51.0945 30.5 51.0343C30.5372 50.9741 30.5947 50.9292 30.6621 50.9077L69.5222 38.5449C69.5969 38.5223 69.6775 38.5299 69.7466 38.5662C69.8157 38.6025 69.8678 38.6645 69.8915 38.7388C69.9152 38.8131 69.9086 38.8938 69.8733 38.9633C69.8379 39.0328 69.7765 39.0856 69.7025 39.1103L30.8425 51.4731C30.8133 51.4822 30.7829 51.4869 30.7523 51.487Z" fill="white"/>
</g>
<g opacity="0.61">
<path opacity="0.61" d="M65.6999 26.56L26.8412 38.9268L27.4182 40.7353L66.2768 28.3685L65.6999 26.56Z" fill="white"/>
</g>
<g opacity="0.61">
<path opacity="0.61" d="M28.9408 45.8067C28.87 45.8066 28.8015 45.7812 28.7478 45.7352C28.694 45.6892 28.6585 45.6254 28.6477 45.5556C28.6368 45.4857 28.6513 45.4142 28.6885 45.354C28.7257 45.2939 28.7832 45.2489 28.8506 45.2274L67.7105 32.8648C67.7476 32.853 67.7867 32.8486 67.8256 32.8519C67.8645 32.8552 67.9023 32.866 67.937 32.8839C67.9716 32.9018 68.0024 32.9263 68.0275 32.9561C68.0527 32.9858 68.0717 33.0203 68.0836 33.0574C68.0954 33.0945 68.0998 33.1336 68.0965 33.1724C68.0933 33.2112 68.0824 33.249 68.0645 33.2836C68.0466 33.3182 68.022 33.3489 67.9922 33.3741C67.9624 33.3992 67.9279 33.4182 67.8908 33.43L29.031 45.7922C29.0018 45.8016 28.9714 45.8065 28.9408 45.8067Z" fill="white"/>
</g>
<path d="M34.9422 81.0361C34.9092 81.0466 34.8747 81.0513 34.8401 81.0498L23.8957 80.5907C23.8568 80.5891 23.8186 80.5798 23.7832 80.5634C23.7479 80.547 23.7162 80.5238 23.6898 80.4952C23.6366 80.4374 23.6085 80.3608 23.6118 80.2823C23.6151 80.2038 23.6495 80.1298 23.7074 80.0766C23.7653 80.0234 23.842 79.9954 23.9206 79.9987L34.6783 80.45L41.4158 67.8243C41.4501 67.7601 41.5069 67.7107 41.5753 67.6855C41.6437 67.6604 41.719 67.6613 41.7868 67.6881L50.9651 71.3127L57.0071 64.9772C57.0425 64.9401 57.087 64.9129 57.1361 64.8981C57.1853 64.8833 57.2374 64.8815 57.2875 64.8928L67.7519 67.265L70.9494 58.4624C70.9762 58.3885 71.0313 58.3283 71.1026 58.2951C71.1738 58.2618 71.2554 58.2581 71.3293 58.2849C71.4033 58.3117 71.4636 58.3667 71.4969 58.4379C71.5302 58.5091 71.5339 58.5906 71.507 58.6644L68.2204 67.7119C68.196 67.7799 68.1474 67.8366 68.0839 67.8712C68.0203 67.9059 67.9463 67.916 67.8758 67.8998L57.3202 65.5072L51.2567 71.8661C51.2159 71.9088 51.1633 71.9384 51.1056 71.951C51.0479 71.9637 50.9877 71.9589 50.9328 71.9372L41.8147 68.3364L35.115 80.8931C35.0783 80.9615 35.0163 81.0128 34.9422 81.0361Z" fill="#262626"/>
<path d="M17.5421 56.7394C21.9424 56.7394 25.5096 53.1766 25.5096 48.7816C25.5096 44.3867 21.9424 40.8239 17.5421 40.8239C13.1418 40.8239 9.57458 44.3867 9.57458 48.7816C9.57458 53.1766 13.1418 56.7394 17.5421 56.7394Z" fill="#F3F5FD"/>
<path d="M21.4047 41.8222L17.5433 48.7818L15.1252 41.1999C16.1223 40.881 17.1728 40.7623 18.2161 40.8505C19.2593 40.9388 20.2748 41.2322 21.2041 41.714C21.2713 41.7486 21.3388 41.7851 21.4047 41.8222Z" fill="#0CBC8B"/>
<path d="M25.135 46.3671C25.5709 47.7247 25.631 49.1749 25.309 50.5639L17.5433 48.7829L21.2041 41.7147C21.2713 41.7493 21.3388 41.7858 21.4047 41.8229C23.1851 42.8044 24.5203 44.431 25.135 46.3671Z" fill="#262626"/>
<path d="M25.5862 85.8728C25.5351 85.8727 25.4848 85.8602 25.4396 85.8364C25.3943 85.8126 25.3555 85.7782 25.3265 85.7362C25.2975 85.6942 25.279 85.6458 25.2728 85.5952C25.2665 85.5445 25.2726 85.4931 25.2906 85.4453L31.1336 69.909C31.1484 69.8696 31.1709 69.8336 31.1999 69.803C31.2288 69.7724 31.2635 69.7478 31.302 69.7308C31.3405 69.7138 31.3821 69.7046 31.4242 69.7038C31.4663 69.703 31.5082 69.7106 31.5473 69.7262L43.9613 74.6637L49.2978 67.8002C49.335 67.7524 49.3852 67.7162 49.4424 67.696C49.4996 67.6758 49.5614 67.6725 49.6204 67.6864L60.5903 70.257L69.9084 55.1028C69.9298 55.0667 69.9582 55.0353 69.9919 55.0103C70.0256 54.9853 70.064 54.9673 70.1048 54.9572C70.1455 54.9472 70.1879 54.9453 70.2294 54.9518C70.2709 54.9582 70.3106 54.9729 70.3464 54.9948C70.3822 55.0168 70.4133 55.0456 70.4378 55.0796C70.4623 55.1137 70.4798 55.1523 70.4893 55.1931C70.4987 55.234 70.4999 55.2763 70.4929 55.3177C70.4858 55.359 70.4706 55.3985 70.4481 55.4339L61.0105 70.7827C60.9757 70.8394 60.9239 70.8836 60.8624 70.9092C60.801 70.9347 60.733 70.9403 60.6682 70.9251L49.6736 68.3488L44.3147 75.2394C44.2726 75.2936 44.214 75.3327 44.1478 75.3507C44.0815 75.3687 44.0112 75.3648 43.9473 75.3394L31.6121 70.4333L25.8829 85.6678C25.8602 85.7281 25.8196 85.78 25.7666 85.8166C25.7136 85.8532 25.6507 85.8728 25.5862 85.8728Z" fill="white"/>
<path d="M120.047 14.7651H45.7392V109.848H120.047V14.7651Z" fill="#DEE8F5"/>
<path d="M65.4025 20.8132H51.5937V33.1601H65.4025V20.8132Z" fill="white"/>
<path d="M114.194 51.1981H101.851V80.7995H114.194V51.1981Z" fill="#8DDBE0"/>
<path d="M101.851 76.8015H51.5949V80.5755H101.851V76.8015Z" fill="#C1D8ED"/>
<path d="M114.194 49.416H51.5924V52.9803H114.194V49.416Z" fill="white"/>
<path d="M114.491 81.0962H51.2955V49.416H51.8893V80.5032H113.897V49.416H114.491V81.0962Z" fill="white"/>
<path d="M63.3915 51.1981H62.7975V80.7997H63.3915V51.1981Z" fill="white"/>
<path d="M114.194 56.4576H51.5949V57.0509H114.194V56.4576Z" fill="white"/>
<path d="M114.194 60.4672H51.5949V61.0604H114.194V60.4672Z" fill="white"/>
<path d="M114.194 64.4765H51.5949V65.0698H114.194V64.4765Z" fill="white"/>
<path d="M114.194 68.4861H51.5949V69.0793H114.194V68.4861Z" fill="white"/>
<path d="M114.194 72.4954H51.5949V73.0887H114.194V72.4954Z" fill="white"/>
<path d="M114.194 76.505H51.5949V77.0983H114.194V76.505Z" fill="white"/>
<path d="M89.4718 51.1981H88.8778V80.7997H89.4718V51.1981Z" fill="white"/>
<path d="M102.147 51.1981H101.553V80.7997H102.147V51.1981Z" fill="white"/>
<path d="M114.194 97.1965H95.2211V103.971H114.194V97.1965Z" fill="white"/>
<path d="M114.194 86.5913H51.5924V87.1846H114.194V86.5913Z" fill="white"/>
<path d="M114.194 91.7457H51.5924V92.3389H114.194V91.7457Z" fill="white"/>
<path d="M114.194 27.7093H70.966V28.3025H114.194V27.7093Z" fill="white"/>
<path d="M93.0729 32.8636H70.966V33.4568H93.0729V32.8636Z" fill="white"/>
<path d="M114.194 38.5799H51.5924V39.1732H114.194V38.5799Z" fill="white"/>
<path d="M114.194 43.7342H51.5924V44.3275H114.194V43.7342Z" fill="white"/>
<path d="M114.194 21.0241H70.966V23.454H114.194V21.0241Z" fill="white"/>
<path d="M150.655 82.4599L121.08 73.4692C119.604 73.0205 118.044 73.8517 117.594 75.3258L106.883 110.475C106.434 111.949 107.266 113.508 108.742 113.956L138.316 122.947C139.792 123.396 141.353 122.564 141.802 121.09L152.513 85.9414C152.963 84.4673 152.13 82.9086 150.655 82.4599Z" fill="#262626"/>
<path d="M148.141 84.8039L121.86 76.8141C121.004 76.554 120.1 77.0359 119.839 77.8903L118.636 81.8379C118.376 82.6923 118.858 83.5958 119.714 83.8558L145.995 91.8456C146.851 92.1057 147.755 91.6239 148.016 90.7694L149.219 86.8218C149.479 85.9674 148.997 85.0639 148.141 84.8039Z" fill="white"/>
<path d="M124.452 88.1071L118.543 86.3107C117.901 86.1156 117.222 86.4772 117.027 87.1184L115.649 91.6384C115.454 92.2797 115.816 92.9578 116.458 93.1529L122.367 94.9493C123.009 95.1444 123.688 94.7828 123.883 94.1416L125.261 89.6216C125.456 88.9803 125.094 88.3022 124.452 88.1071Z" fill="#FD5D76"/>
<path opacity="0.16" d="M135.025 91.3211L129.116 89.5247C128.474 89.3296 127.795 89.6912 127.6 90.3324L126.222 94.8524C126.027 95.4937 126.389 96.1718 127.031 96.3669L132.94 98.1633C133.582 98.3584 134.261 97.9968 134.456 97.3555L135.834 92.8356C136.029 92.1943 135.667 91.5162 135.025 91.3211Z" fill="#0F1011"/>
<path opacity="0.16" d="M145.598 94.5353L139.689 92.739C139.047 92.5438 138.368 92.9054 138.173 93.5467L136.795 98.0666C136.6 98.7079 136.962 99.386 137.604 99.5812L143.513 101.377C144.155 101.573 144.834 101.211 145.029 100.57L146.407 96.0498C146.602 95.4085 146.24 94.7305 145.598 94.5353Z" fill="#0F1011"/>
<path opacity="0.16" d="M121.657 97.278L115.748 95.4817C115.106 95.2865 114.427 95.6481 114.232 96.2893L112.855 100.809C112.659 101.451 113.021 102.129 113.663 102.324L119.572 104.12C120.214 104.315 120.893 103.954 121.088 103.312L122.466 98.7925C122.661 98.1512 122.299 97.4731 121.657 97.278Z" fill="#0F1011"/>
<path opacity="0.16" d="M132.23 100.492L126.321 98.6959C125.679 98.5007 125 98.8623 124.805 99.5036L123.427 104.024C123.232 104.665 123.594 105.343 124.236 105.538L130.145 107.334C130.787 107.53 131.466 107.168 131.661 106.527L133.039 102.007C133.234 101.365 132.872 100.687 132.23 100.492Z" fill="#0F1011"/>
<path opacity="0.16" d="M118.862 106.449L112.953 104.652C112.311 104.457 111.632 104.819 111.437 105.46L110.06 109.98C109.864 110.621 110.226 111.299 110.868 111.495L116.777 113.291C117.419 113.486 118.098 113.124 118.294 112.483L119.671 107.963C119.866 107.322 119.504 106.644 118.862 106.449Z" fill="#0F1011"/>
<path opacity="0.16" d="M129.435 109.663L123.526 107.867C122.884 107.671 122.205 108.033 122.01 108.674L120.633 113.194C120.437 113.836 120.799 114.514 121.441 114.709L127.35 116.505C127.992 116.7 128.671 116.339 128.866 115.697L130.244 111.177C130.439 110.536 130.077 109.858 129.435 109.663Z" fill="#0F1011"/>
<path d="M136.894 101.91C136.586 101.817 136.253 101.849 135.968 102.001C135.684 102.152 135.471 102.41 135.377 102.718L132.936 110.728L132.423 112.413L131.205 116.409C131.159 116.561 131.143 116.722 131.158 116.88C131.174 117.039 131.22 117.193 131.295 117.333C131.37 117.474 131.473 117.599 131.596 117.7C131.719 117.801 131.861 117.877 132.014 117.923L137.923 119.72C138.075 119.766 138.236 119.782 138.395 119.767C138.553 119.751 138.708 119.705 138.848 119.63C138.989 119.555 139.114 119.453 139.215 119.33C139.317 119.206 139.393 119.065 139.439 118.912L140.657 114.916L141.17 113.231L143.611 105.221C143.705 104.913 143.673 104.581 143.521 104.297C143.369 104.013 143.111 103.8 142.803 103.707L136.894 101.91Z" fill="#0CBC8B"/>
</g>
<defs>
<clipPath id="clip0_5_124">
<rect width="162" height="131" fill="white"/>
</clipPath>
</defs>
</svg>
