<svg width="194" height="110" viewBox="0 0 194 110" fill="none" xmlns="http://www.w3.org/2000/svg">
<g clip-path="url(#clip0_5_204)">
<path d="M180.754 19.1163H177.806C177.572 19.1167 177.344 19.0439 177.152 18.908C176.961 18.7721 176.817 18.5798 176.739 18.3579C176.513 17.7074 176.247 17.0722 175.94 16.4559C175.834 16.2427 175.798 16.0014 175.837 15.7664C175.875 15.5313 175.987 15.3145 176.155 15.1466L178.25 13.043C178.463 12.8291 178.582 12.5391 178.582 12.2367C178.582 11.9343 178.463 11.6442 178.25 11.4303L173.724 6.88769C173.511 6.67393 173.222 6.55385 172.921 6.55385C172.62 6.55385 172.331 6.67393 172.118 6.88769L169.985 9.02923C169.819 9.19654 169.605 9.30762 169.373 9.34697C169.142 9.38631 168.903 9.35195 168.692 9.24868C168.089 8.95346 167.469 8.69681 166.835 8.48027C166.612 8.4038 166.418 8.25891 166.28 8.06597C166.143 7.87303 166.069 7.64174 166.07 7.40463V4.37085C166.07 4.22118 166.041 4.07297 165.984 3.93468C165.927 3.7964 165.843 3.67075 165.738 3.56491C165.632 3.45908 165.507 3.37513 165.369 3.31787C165.232 3.2606 165.084 3.23114 164.935 3.23117H158.537C158.388 3.23114 158.24 3.2606 158.103 3.31787C157.965 3.37513 157.84 3.45908 157.735 3.56491C157.629 3.67075 157.546 3.7964 157.489 3.93468C157.431 4.07297 157.402 4.22118 157.402 4.37085V7.40463C157.403 7.64174 157.329 7.87303 157.192 8.06597C157.055 8.25891 156.86 8.4038 156.637 8.48027C156.003 8.69678 155.383 8.95343 154.781 9.24868C154.569 9.35195 154.331 9.38631 154.099 9.34697C153.867 9.30762 153.653 9.19654 153.487 9.02923L151.354 6.88769C151.141 6.67397 150.852 6.55392 150.551 6.55392C150.25 6.55392 149.961 6.67397 149.748 6.88769L145.222 11.4303C145.009 11.6442 144.89 11.9343 144.89 12.2367C144.89 12.5391 145.009 12.8291 145.222 13.043L147.317 15.1466C147.486 15.3145 147.597 15.5314 147.635 15.7664C147.674 16.0015 147.638 16.2427 147.532 16.4559C147.225 17.0718 146.959 17.7071 146.735 18.3579C146.657 18.5798 146.512 18.7719 146.32 18.9078C146.129 19.0436 145.9 19.1165 145.665 19.1163H142.718C142.569 19.1162 142.421 19.1457 142.284 19.2029C142.146 19.2602 142.021 19.3441 141.915 19.45C141.81 19.5558 141.726 19.6815 141.669 19.8198C141.612 19.9581 141.583 20.1063 141.583 20.256V26.6827C141.583 26.8324 141.612 26.9806 141.669 27.1189C141.726 27.2572 141.81 27.3829 141.915 27.4887C142.021 27.5945 142.146 27.6785 142.284 27.7358C142.421 27.793 142.569 27.8224 142.718 27.8224H145.588C145.827 27.8222 146.059 27.8978 146.253 28.0383C146.446 28.1788 146.59 28.3771 146.665 28.6048C146.886 29.2728 147.151 29.9255 147.458 30.5587C147.562 30.772 147.597 31.0125 147.559 31.2469C147.52 31.4812 147.41 31.6977 147.243 31.8661L145.222 33.8959C145.116 34.0016 145.033 34.1272 144.976 34.2655C144.919 34.4037 144.889 34.5519 144.889 34.7016C144.889 34.8513 144.919 34.9995 144.976 35.1377C145.033 35.276 145.116 35.4016 145.222 35.5073L149.748 40.0512C149.961 40.2649 150.25 40.385 150.551 40.385C150.852 40.385 151.141 40.2649 151.354 40.0512L153.335 38.0613C153.504 37.8922 153.722 37.7807 153.957 37.7427C154.193 37.7046 154.434 37.7419 154.647 37.8492C155.288 38.1709 155.95 38.4483 156.629 38.6796C156.854 38.756 157.049 38.9012 157.188 39.0949C157.327 39.2886 157.401 39.5209 157.402 39.7594V42.5655C157.402 42.7153 157.431 42.8638 157.488 43.0023C157.545 43.1408 157.628 43.2666 157.733 43.3727C157.839 43.4787 157.964 43.5629 158.102 43.6203C158.24 43.6777 158.387 43.7073 158.537 43.7073H164.935C165.084 43.7073 165.232 43.6777 165.369 43.6203C165.507 43.5629 165.632 43.4787 165.738 43.3727C165.843 43.2666 165.927 43.1408 165.984 43.0023C166.041 42.8638 166.07 42.7153 166.069 42.5655V39.7599C166.07 39.5214 166.145 39.289 166.283 39.0954C166.422 38.9017 166.618 38.7565 166.842 38.68C167.521 38.4488 168.183 38.1713 168.824 37.8497C169.037 37.7423 169.279 37.705 169.514 37.7431C169.75 37.7811 169.967 37.8926 170.136 38.0617L172.118 40.0516C172.331 40.2654 172.619 40.3855 172.921 40.3855C173.222 40.3855 173.51 40.2654 173.723 40.0516L178.249 35.5069C178.355 35.4012 178.438 35.2756 178.496 35.1373C178.553 34.9991 178.582 34.8509 178.582 34.7012C178.582 34.5515 178.553 34.4033 178.496 34.265C178.438 34.1268 178.355 34.0012 178.249 33.8955L176.228 31.8657C176.061 31.6972 175.951 31.4808 175.912 31.2464C175.874 31.0121 175.909 30.7715 176.013 30.5583C176.32 29.9251 176.585 29.2724 176.806 28.6044C176.881 28.3766 177.025 28.1784 177.218 28.0379C177.412 27.8974 177.644 27.8218 177.883 27.822H180.753C180.902 27.822 181.05 27.7926 181.187 27.7353C181.325 27.6781 181.45 27.5941 181.556 27.4883C181.661 27.3824 181.745 27.2568 181.802 27.1185C181.859 26.9802 181.888 26.832 181.888 26.6823V20.256C181.888 20.1064 181.859 19.9582 181.802 19.82C181.745 19.6817 181.661 19.5561 181.556 19.4503C181.451 19.3444 181.326 19.2605 181.188 19.2032C181.05 19.1459 180.903 19.1164 180.754 19.1163ZM161.737 32.9659C159.866 32.9661 158.038 32.4092 156.482 31.3657C154.927 30.3221 153.714 28.8388 152.998 27.1034C152.282 25.3679 152.095 23.4582 152.46 21.6159C152.825 19.7735 153.726 18.0811 155.048 16.7528C156.371 15.4245 158.056 14.52 159.891 14.1535C161.726 13.7871 163.628 13.9753 165.356 14.6942C167.084 15.4131 168.561 16.6306 169.6 18.1925C170.639 19.7545 171.194 21.5909 171.194 23.4693C171.194 25.9879 170.197 28.4032 168.424 30.1841C166.65 31.965 164.245 32.9656 161.737 32.9659Z" fill="#F4F4F4"/>
<path d="M55.4075 88.448H53.2426C53.0705 88.4483 52.9026 88.3948 52.7621 88.295C52.6216 88.1952 52.5156 88.0539 52.4586 87.8908C52.2928 87.413 52.0968 86.9464 51.8716 86.4937C51.7939 86.3371 51.7674 86.1599 51.7957 85.9873C51.824 85.8146 51.9058 85.6553 52.0293 85.532L53.5688 83.9864C53.7252 83.8293 53.813 83.6163 53.813 83.3941C53.813 83.172 53.7252 82.9589 53.5688 82.8018L50.2447 79.4653C50.0882 79.3082 49.8761 79.22 49.6549 79.22C49.4336 79.22 49.2215 79.3082 49.065 79.4653L47.4987 81.0383C47.3767 81.1612 47.2196 81.2427 47.0493 81.2716C46.879 81.3005 46.7039 81.2753 46.5485 81.1995C46.1064 80.9826 45.651 80.7941 45.1851 80.635C45.0209 80.5789 44.8784 80.4725 44.7776 80.3307C44.6768 80.189 44.6227 80.0192 44.623 79.845V77.617C44.6231 77.507 44.6015 77.3981 44.5596 77.2966C44.5178 77.195 44.4564 77.1027 44.3789 77.025C44.3015 76.9472 44.2096 76.8856 44.1085 76.8435C44.0073 76.8015 43.8989 76.7798 43.7894 76.7798H39.0886C38.9791 76.7798 38.8707 76.8015 38.7695 76.8435C38.6684 76.8856 38.5765 76.9472 38.4991 77.025C38.4216 77.1027 38.3602 77.195 38.3184 77.2966C38.2765 77.3981 38.2549 77.507 38.255 77.617V79.8454C38.2553 80.0196 38.2012 80.1895 38.1004 80.3312C37.9996 80.4729 37.8571 80.5793 37.6929 80.6355C37.227 80.7945 36.7716 80.983 36.3295 81.1999C36.1741 81.2758 35.999 81.301 35.8287 81.2721C35.6583 81.2432 35.5012 81.1616 35.3793 81.0388L33.8128 79.4657C33.6563 79.3087 33.4441 79.2205 33.2229 79.2205C33.0017 79.2205 32.7895 79.3087 32.6331 79.4657L29.3089 82.8022C29.1526 82.9594 29.0647 83.1724 29.0647 83.3946C29.0647 83.6167 29.1526 83.8297 29.3089 83.9869L30.8476 85.532C30.9712 85.6553 31.0529 85.8146 31.0812 85.9873C31.1096 86.1599 31.083 86.3371 31.0053 86.4937C30.7801 86.9462 30.5845 87.4129 30.4198 87.8908C30.3624 88.0539 30.256 88.195 30.1154 88.2948C29.9747 88.3946 29.8067 88.4481 29.6345 88.448H27.4692C27.3597 88.448 27.2513 88.4697 27.1501 88.5117C27.049 88.5538 26.9571 88.6154 26.8797 88.6932C26.8022 88.7709 26.7408 88.8632 26.699 88.9648C26.6571 89.0664 26.6355 89.1752 26.6356 89.2852V94.0057C26.6355 94.1156 26.6571 94.2245 26.699 94.326C26.7408 94.4276 26.8022 94.5199 26.8797 94.5976C26.9571 94.6754 27.049 94.737 27.1501 94.7791C27.2513 94.8212 27.3597 94.8428 27.4692 94.8428H29.5773C29.7527 94.8426 29.9236 94.898 30.0657 95.0012C30.2078 95.1044 30.3138 95.2501 30.3685 95.4174C30.5312 95.9081 30.7258 96.3875 30.951 96.8526C31.0275 97.0093 31.0534 97.186 31.0252 97.3581C30.9969 97.5303 30.9158 97.6892 30.7933 97.8129L29.3087 99.304C29.2313 99.3816 29.1699 99.4738 29.128 99.5753C29.0861 99.6768 29.0645 99.7856 29.0645 99.8954C29.0645 100.005 29.0861 100.114 29.128 100.216C29.1699 100.317 29.2313 100.409 29.3087 100.487L32.6329 103.825C32.7893 103.982 33.0015 104.07 33.2227 104.07C33.4439 104.07 33.6561 103.982 33.8126 103.825L35.268 102.363C35.3921 102.239 35.5519 102.157 35.7248 102.13C35.8977 102.102 36.075 102.129 36.2315 102.208C36.7024 102.444 37.1887 102.648 37.6872 102.818C37.8524 102.874 37.996 102.981 38.0979 103.123C38.1997 103.265 38.2546 103.436 38.255 103.611V105.672C38.2548 105.782 38.2762 105.891 38.318 105.993C38.3599 106.095 38.4212 106.187 38.4987 106.265C38.5761 106.343 38.668 106.405 38.7693 106.447C38.8705 106.489 38.979 106.511 39.0886 106.511H43.7881C43.8977 106.511 44.0062 106.489 44.1075 106.447C44.2087 106.405 44.3006 106.343 44.3781 106.265C44.4555 106.187 44.5169 106.095 44.5587 105.993C44.6005 105.891 44.6219 105.782 44.6218 105.672V103.611C44.6221 103.436 44.677 103.265 44.7789 103.123C44.8807 102.981 45.0243 102.874 45.1896 102.818C45.688 102.648 46.1743 102.444 46.6452 102.208C46.8017 102.129 46.979 102.102 47.1519 102.13C47.3248 102.157 47.4847 102.239 47.6087 102.363L49.0642 103.825C49.2206 103.982 49.4328 104.07 49.654 104.07C49.8752 104.07 50.0874 103.982 50.2439 103.825L53.5688 100.487C53.6463 100.409 53.7077 100.317 53.7496 100.216C53.7915 100.114 53.8131 100.005 53.8131 99.8954C53.8131 99.7856 53.7915 99.6768 53.7496 99.5753C53.7077 99.4738 53.6463 99.3816 53.5688 99.304L52.0842 97.8129C51.9618 97.6892 51.8807 97.5302 51.8525 97.3581C51.8242 97.186 51.8501 97.0093 51.9265 96.8526C52.1517 96.3875 52.3463 95.9081 52.5091 95.4174C52.5638 95.2501 52.6698 95.1044 52.8119 95.0012C52.954 94.898 53.1249 94.8426 53.3003 94.8428H55.4084C55.5179 94.8428 55.6263 94.8212 55.7274 94.7791C55.8286 94.737 55.9205 94.6754 55.9979 94.5976C56.0753 94.5199 56.1367 94.4276 56.1786 94.326C56.2205 94.2245 56.242 94.1156 56.242 94.0057V89.2852C56.242 89.1751 56.2205 89.0662 56.1785 88.9646C56.1366 88.863 56.0751 88.7706 55.9976 88.6929C55.9201 88.6151 55.8281 88.5535 55.7268 88.5115C55.6256 88.4695 55.5171 88.4479 55.4075 88.448ZM41.4391 98.6208C40.0651 98.6208 38.722 98.2117 37.5796 97.4451C36.4372 96.6786 35.5468 95.5891 35.0211 94.3144C34.4953 93.0398 34.3577 91.6371 34.6257 90.284C34.8938 88.9308 35.5554 87.6878 36.5269 86.7122C37.4985 85.7366 38.7363 85.0722 40.0838 84.803C41.4314 84.5339 42.8282 84.672 44.0975 85.2C45.3669 85.728 46.4519 86.6221 47.2152 87.7693C47.9785 88.9165 48.3859 90.2652 48.3859 91.6449C48.3859 92.561 48.2063 93.4681 47.8571 94.3144C47.508 95.1608 46.9963 95.9298 46.3513 96.5776C45.7062 97.2254 44.9404 97.7392 44.0975 98.0898C43.2547 98.4403 42.3514 98.6208 41.4391 98.6208Z" fill="#F4F4F4"/>
<path d="M39.1711 49.8737H36.2235C35.9892 49.874 35.7606 49.8012 35.5694 49.6653C35.3781 49.5294 35.2337 49.3372 35.1561 49.1152C34.9304 48.4647 34.6635 47.8294 34.3571 47.2131C34.2513 46.9999 34.2151 46.7586 34.2536 46.5235C34.2922 46.2885 34.4035 46.0716 34.5718 45.9038L36.6667 43.8002C36.8795 43.5862 36.999 43.2962 36.999 42.9938C36.999 42.6914 36.8795 42.4014 36.6667 42.1874L32.1411 37.6448C31.928 37.4311 31.6392 37.3111 31.3381 37.3111C31.0369 37.3111 30.7481 37.4311 30.5351 37.6448L28.4025 39.7864C28.2364 39.9538 28.0225 40.0649 27.7905 40.1043C27.5585 40.1436 27.3201 40.1092 27.1085 40.0058C26.5065 39.7106 25.8864 39.454 25.2521 39.2374C25.0286 39.161 24.8346 39.0161 24.6973 38.8231C24.56 38.6302 24.4865 38.3989 24.4869 38.1618V35.128C24.4869 34.9783 24.4576 34.8301 24.4006 34.6918C24.3436 34.5535 24.26 34.4278 24.1546 34.322C24.0492 34.2162 23.9241 34.1322 23.7863 34.075C23.6486 34.0177 23.501 33.9883 23.352 33.9883H16.9541C16.8051 33.9883 16.6575 34.0178 16.5198 34.075C16.3821 34.1323 16.257 34.2162 16.1516 34.3221C16.0462 34.4279 15.9626 34.5536 15.9056 34.6919C15.8486 34.8301 15.8193 34.9783 15.8194 35.128V38.1618C15.8198 38.3989 15.7462 38.6302 15.6089 38.8231C15.4717 39.016 15.2777 39.1609 15.0542 39.2374C14.4198 39.4539 13.7997 39.7105 13.1977 40.0058C12.9862 40.1092 12.7477 40.1436 12.5158 40.1043C12.2838 40.0649 12.0698 39.9538 11.9038 39.7864L9.77119 37.6448C9.55814 37.4311 9.26932 37.3111 8.96819 37.3111C8.66705 37.3111 8.37823 37.4311 8.16518 37.6448L3.63918 42.1874C3.42635 42.4014 3.3068 42.6914 3.3068 42.9938C3.3068 43.2962 3.42635 43.5862 3.63918 43.8002L5.73421 45.9038C5.90251 46.0716 6.01382 46.2885 6.05234 46.5236C6.09085 46.7586 6.0546 46.9999 5.94874 47.2131C5.64211 47.829 5.37591 48.4644 5.15186 49.1152C5.07354 49.3371 4.92864 49.5292 4.73712 49.6651C4.54559 49.8009 4.31685 49.8738 4.08238 49.8737H1.13493C0.985886 49.8736 0.838283 49.903 0.700563 49.9602C0.562843 50.0175 0.437705 50.1014 0.332303 50.2072C0.226901 50.313 0.143301 50.4387 0.0862829 50.577C0.0292642 50.7152 -5.53366e-05 50.8635 1.76991e-07 51.0131V57.4399C-8.30918e-05 57.5896 0.029216 57.7378 0.0862222 57.8761C0.143228 58.0144 0.226824 58.1401 0.332229 58.2459C0.437633 58.3518 0.56278 58.4357 0.700514 58.493C0.838248 58.5502 0.985868 58.5796 1.13493 58.5795H4.00489C4.24357 58.5794 4.4762 58.655 4.66957 58.7955C4.86295 58.936 5.0072 59.1343 5.08175 59.3619C5.30324 60.03 5.56817 60.6828 5.87483 61.316C5.97888 61.5293 6.01411 61.7698 5.97562 62.0041C5.93713 62.2384 5.82683 62.4548 5.66009 62.6232L3.63875 64.653C3.53328 64.7588 3.44961 64.8844 3.39252 65.0226C3.33543 65.1609 3.30605 65.3091 3.30605 65.4588C3.30605 65.6084 3.33543 65.7566 3.39252 65.8949C3.44961 66.0331 3.53328 66.1587 3.63875 66.2645L8.16455 70.809C8.37759 71.0227 8.66641 71.1428 8.96755 71.1428C9.26869 71.1428 9.55751 71.0227 9.77056 70.809L11.752 68.8191C11.9208 68.6499 12.1384 68.5384 12.3738 68.5004C12.6093 68.4623 12.8507 68.4996 13.0639 68.607C13.7049 68.9286 14.367 69.2059 15.0455 69.4371C15.2705 69.5135 15.4661 69.6588 15.6048 69.8524C15.7434 70.0461 15.8183 70.2785 15.8187 70.517V73.3233C15.8185 73.4731 15.8477 73.6215 15.9046 73.76C15.9615 73.8984 16.045 74.0243 16.1504 74.1303C16.2558 74.2363 16.381 74.3205 16.5188 74.3779C16.6566 74.4353 16.8043 74.4649 16.9535 74.4649H23.3513C23.5005 74.4649 23.6483 74.4353 23.7861 74.3779C23.9239 74.3205 24.0491 74.2364 24.1545 74.1304C24.2599 74.0244 24.3435 73.8985 24.4004 73.76C24.4573 73.6215 24.4865 73.4731 24.4863 73.3233V70.517C24.4867 70.2785 24.5616 70.0461 24.7002 69.8524C24.8389 69.6588 25.0345 69.5135 25.2595 69.4371C25.938 69.2059 26.6 68.9286 27.2409 68.607C27.4541 68.4996 27.6955 68.4623 27.9309 68.5004C28.1664 68.5384 28.384 68.6499 28.5528 68.8191L30.5344 70.809C30.7475 71.0227 31.0363 71.1428 31.3374 71.1428C31.6386 71.1428 31.9274 71.0227 32.1404 70.809L36.666 66.2645C36.7715 66.1587 36.8552 66.0331 36.9123 65.8949C36.9694 65.7566 36.9987 65.6084 36.9987 65.4588C36.9987 65.3091 36.9694 65.1609 36.9123 65.0226C36.8552 64.8844 36.7715 64.7588 36.666 64.653L34.6447 62.6232C34.478 62.4548 34.3677 62.2384 34.3292 62.0041C34.2907 61.7698 34.3259 61.5293 34.43 61.316C34.7367 60.6828 35.0016 60.0301 35.223 59.3619C35.2976 59.1343 35.4418 58.936 35.6352 58.7955C35.8286 58.655 36.0612 58.5794 36.2999 58.5795H39.1701C39.3191 58.5796 39.4667 58.5502 39.6044 58.4929C39.7421 58.4356 39.8672 58.3517 39.9726 58.2459C40.078 58.14 40.1616 58.0143 40.2186 57.876C40.2756 57.7378 40.3049 57.5895 40.3048 57.4399V51.0131C40.3049 50.7111 40.1855 50.4213 39.9729 50.2077C39.7603 49.994 39.4719 49.8738 39.1711 49.8737ZM20.1539 63.723C18.2832 63.7232 16.4545 63.1663 14.8991 62.1228C13.3436 61.0793 12.1312 59.596 11.4153 57.8605C10.6993 56.1251 10.512 54.2154 10.8769 52.373C11.2418 50.5306 12.1426 48.8383 13.4653 47.51C14.7881 46.1817 16.4734 45.2771 18.3081 44.9107C20.1428 44.5443 22.0445 44.7324 23.7728 45.4514C25.501 46.1703 26.9781 47.3877 28.0173 48.9497C29.0565 50.5117 29.611 52.348 29.6109 54.2265C29.6106 56.7451 28.6141 59.1604 26.8407 60.9413C25.0672 62.7221 22.6619 63.7228 20.1539 63.723Z" fill="#F4F4F4"/>
<path d="M29.8387 91.7026L140.858 91.7026C143.584 91.7026 145.794 89.4832 145.794 86.7454V5.12231C145.794 2.38456 143.584 0.165176 140.858 0.165176L29.8387 0.165176C27.1123 0.165176 24.9022 2.38456 24.9022 5.12231L24.9022 86.7454C24.9022 89.4832 27.1123 91.7026 29.8387 91.7026Z" fill="white"/>
<path d="M24.7375 86.7454V5.1223C24.7391 3.76425 25.2771 2.46228 26.2334 1.50201C27.1897 0.541739 28.4863 0.00157118 29.8387 0L140.858 0C142.211 0.00157118 143.507 0.541739 144.464 1.50201C145.42 2.46228 145.958 3.76425 145.96 5.1223V86.7454C145.958 88.1035 145.42 89.4055 144.464 90.3658C143.507 91.3261 142.211 91.8662 140.858 91.8677H29.8387C28.4863 91.8662 27.1897 91.3261 26.2334 90.3658C25.277 89.4055 24.7391 88.1035 24.7375 86.7454ZM29.8387 0.33056C28.5735 0.332019 27.3606 0.837353 26.466 1.7357C25.5714 2.63405 25.0682 3.85206 25.0667 5.12252V86.7454C25.0682 88.0159 25.5714 89.2339 26.466 90.1322C27.3606 91.0306 28.5735 91.5359 29.8387 91.5374H140.858C142.124 91.5359 143.336 91.0306 144.231 90.1322C145.126 89.2339 145.629 88.0159 145.63 86.7454V5.1223C145.629 3.85183 145.126 2.63379 144.231 1.73543C143.336 0.837067 142.124 0.331751 140.858 0.330348L29.8387 0.33056Z" fill="#292A2E"/>
<path d="M24.9022 5.12167V10.1098H145.794V5.12167C145.794 3.8071 145.274 2.54636 144.348 1.61675C143.423 0.687127 142.167 0.16476 140.858 0.164536H29.8387C28.5295 0.164536 27.2739 0.686803 26.3481 1.61645C25.4223 2.54609 24.9022 3.80695 24.9022 5.12167Z" fill="#292A2E"/>
<path d="M46.1815 55.5394C43.538 55.5394 40.9539 54.7522 38.7559 53.2774C36.5579 51.8026 34.8447 49.7065 33.8331 47.254C32.8215 44.8015 32.5568 42.1028 33.0725 39.4992C33.5883 36.8957 34.8612 34.5042 36.7305 32.6271C38.5997 30.75 40.9813 29.4717 43.574 28.9539C46.1667 28.436 48.8541 28.7018 51.2964 29.7176C53.7387 30.7335 55.8261 32.4538 57.2948 34.661C58.7634 36.8682 59.5473 39.4631 59.5473 42.1177C59.5433 45.6761 58.1338 49.0876 55.6281 51.6038C53.1224 54.1199 49.7251 55.5353 46.1815 55.5394ZM46.1815 29.12C43.6215 29.12 41.119 29.8823 38.9905 31.3105C36.8619 32.7387 35.2029 34.7687 34.2233 37.1437C33.2436 39.5187 32.9873 42.1321 33.4867 44.6534C33.9861 47.1747 35.2189 49.4907 37.0291 51.3084C38.8393 53.1262 41.1456 54.3641 43.6564 54.8656C46.1672 55.3671 48.7697 55.1097 51.1348 54.126C53.4999 53.1422 55.5214 51.4763 56.9437 49.3388C58.3659 47.2013 59.125 44.6884 59.125 42.1177C59.1213 38.6716 57.7564 35.3677 55.3299 32.9308C52.9033 30.494 49.6133 29.1232 46.1815 29.1192V29.12Z" fill="#292A2E"/>
<path d="M85.3482 55.5394C82.7047 55.5394 80.1206 54.7522 77.9226 53.2774C75.7246 51.8026 74.0114 49.7065 72.9998 47.254C71.9882 44.8015 71.7235 42.1028 72.2392 39.4992C72.7549 36.8957 74.0279 34.5042 75.8972 32.6271C77.7664 30.75 80.148 29.4717 82.7407 28.9539C85.3334 28.436 88.0208 28.7018 90.4631 29.7176C92.9054 30.7335 94.9928 32.4538 96.4615 34.661C97.9301 36.8682 98.714 39.4631 98.714 42.1177C98.7099 45.6761 97.3004 49.0876 94.7948 51.6038C92.2891 54.1199 88.8918 55.5353 85.3482 55.5394ZM85.3482 29.12C82.7882 29.12 80.2857 29.8823 78.1572 31.3105C76.0286 32.7387 74.3696 34.7687 73.39 37.1437C72.4103 39.5187 72.154 42.1321 72.6534 44.6534C73.1528 47.1747 74.3856 49.4907 76.1958 51.3084C78.0059 53.1262 80.3123 54.3641 82.8231 54.8656C85.3338 55.3671 87.9364 55.1097 90.3015 54.126C92.6666 53.1422 94.6881 51.4763 96.1103 49.3388C97.5326 47.2013 98.2917 44.6884 98.2917 42.1177C98.288 38.6716 96.9231 35.3677 94.4966 32.9308C92.07 30.494 88.78 29.1232 85.3482 29.1192V29.12Z" fill="#292A2E"/>
<path d="M124.515 55.5394C121.872 55.5394 119.288 54.7522 117.09 53.2774C114.892 51.8026 113.179 49.7065 112.167 47.254C111.155 44.8015 110.891 42.1028 111.406 39.4992C111.922 36.8957 113.195 34.5042 115.064 32.6271C116.934 30.75 119.315 29.4717 121.908 28.9539C124.5 28.436 127.188 28.7018 129.63 29.7176C132.072 30.7335 134.16 32.4538 135.629 34.661C137.097 36.8682 137.881 39.4631 137.881 42.1177C137.877 45.6761 136.468 49.0876 133.962 51.6038C131.456 54.1199 128.059 55.5353 124.515 55.5394ZM124.515 29.12C121.955 29.12 119.453 29.8823 117.324 31.3105C115.196 32.7387 113.537 34.7687 112.557 37.1437C111.577 39.5187 111.321 42.1321 111.821 44.6534C112.32 47.1747 113.553 49.4907 115.363 51.3084C117.173 53.1262 119.479 54.3641 121.99 54.8656C124.501 55.3671 127.103 55.1097 129.469 54.126C131.834 53.1422 133.855 51.4763 135.277 49.3388C136.7 47.2013 137.459 44.6884 137.459 42.1177C137.455 38.6716 136.09 35.3677 133.664 32.9308C131.237 30.494 127.947 29.1232 124.515 29.1192V29.12Z" fill="#292A2E"/>
<path opacity="0.6" d="M132.835 44.0512V35.6944H123.233V42.2513H130.333L132.835 44.0512Z" fill="#0CBC8B"/>
<path d="M116.195 50.1243V38.8221H129.181V47.6899H119.579L116.195 50.1243Z" fill="#0CBC8B"/>
<path d="M119.138 44.473C119.76 44.473 120.264 43.967 120.264 43.3428C120.264 42.7187 119.76 42.2127 119.138 42.2127C118.517 42.2127 118.013 42.7187 118.013 43.3428C118.013 43.967 118.517 44.473 119.138 44.473Z" fill="white"/>
<path d="M122.688 44.473C123.31 44.473 123.813 43.967 123.813 43.3428C123.813 42.7187 123.31 42.2127 122.688 42.2127C122.066 42.2127 121.563 42.7187 121.563 43.3428C121.563 43.967 122.066 44.473 122.688 44.473Z" fill="white"/>
<path d="M126.238 44.473C126.859 44.473 127.363 43.967 127.363 43.3428C127.363 42.7187 126.859 42.2127 126.238 42.2127C125.616 42.2127 125.112 42.7187 125.112 43.3428C125.112 43.967 125.616 44.473 126.238 44.473Z" fill="white"/>
<path d="M52.8408 46.2244C52.9701 46.311 53.0612 46.4444 53.0953 46.5967C53.1294 46.749 53.1038 46.9087 53.0238 47.0426L52.2958 48.2607C52.1027 48.5902 51.7907 48.8324 51.4246 48.9371C50.2145 49.2704 47.546 49.3374 43.2685 45.0427C38.991 40.748 39.0584 38.0668 39.3903 36.8523C39.4945 36.4846 39.7355 36.1712 40.0634 35.977L41.2769 35.2461C41.4102 35.1658 41.5692 35.1402 41.7209 35.1745C41.8725 35.2088 42.0052 35.3004 42.0913 35.4304L44.0259 38.3443C44.1104 38.472 44.1438 38.6269 44.1193 38.7782C44.0948 38.9295 44.0143 39.0659 43.8939 39.16L42.8073 40.0082C42.6934 40.0965 42.6147 40.2229 42.5855 40.3645C42.5564 40.5061 42.5788 40.6535 42.6485 40.78C42.9674 41.3559 43.2695 42.0346 44.7658 43.539C46.262 45.0433 46.9406 45.3448 47.5132 45.665C47.6392 45.7351 47.7859 45.7575 47.9269 45.7282C48.0679 45.6988 48.1937 45.6196 48.2814 45.5049L49.126 44.4144C49.2197 44.2934 49.3556 44.2124 49.5063 44.1879C49.657 44.1633 49.8115 44.1969 49.9385 44.2819L52.8408 46.2244Z" fill="#0CBC8B"/>
<path opacity="0.6" d="M92.2362 46.8351H78.5145C78.3602 46.8359 78.2119 46.7751 78.1023 46.6661C77.9926 46.5571 77.9305 46.4088 77.9297 46.2539L77.8817 37.9954C77.8813 37.927 77.8943 37.8592 77.92 37.7958C77.9457 37.7324 77.9836 37.6748 78.0315 37.6262C78.0794 37.5775 78.1364 37.5388 78.1992 37.5123C78.262 37.4858 78.3294 37.472 78.3976 37.4717L92.2459 37.4004C92.3833 37.3997 92.5154 37.4538 92.6132 37.5509C92.7109 37.6479 92.7662 37.78 92.767 37.918L92.8149 46.2477C92.8153 46.3245 92.8007 46.4005 92.7718 46.4716C92.743 46.5426 92.7005 46.6073 92.6467 46.6618C92.593 46.7163 92.529 46.7597 92.4586 46.7895C92.3882 46.8192 92.3126 46.8347 92.2362 46.8351Z" fill="#0CBC8B"/>
<path d="M92.6194 37.5564C91.8001 38.1607 85.8501 42.5583 85.8438 42.5625C85.6822 42.6535 85.4993 42.6996 85.3141 42.6958C85.1289 42.6921 84.948 42.6388 84.7902 42.5413L78.0226 37.637C78.0708 37.5852 78.129 37.5438 78.1936 37.5154C78.2583 37.4869 78.3281 37.472 78.3986 37.4716L92.2457 37.3995C92.3152 37.3993 92.3841 37.4131 92.4483 37.44C92.5125 37.467 92.5707 37.5065 92.6194 37.5564Z" fill="#0CBC8B"/>
<path d="M149.414 47.7429C152.072 47.7429 154.226 45.5795 154.226 42.9107C154.226 40.2419 152.072 38.0785 149.414 38.0785C146.756 38.0785 144.602 40.2419 144.602 42.9107C144.602 45.5795 146.756 47.7429 149.414 47.7429Z" fill="#367CFF"/>
<path d="M147.159 42.4529C147.035 42.453 146.914 42.4166 146.811 42.3483C146.707 42.28 146.626 42.1828 146.577 42.0687C146.49 41.8666 144.476 37.0391 146.664 29.9571C149.034 22.286 157.289 22.1967 157.372 22.1967C157.54 22.1967 157.701 22.2637 157.819 22.383C157.938 22.5023 158.005 22.6641 158.005 22.8328C158.005 23.0015 157.938 23.1633 157.819 23.2826C157.701 23.4019 157.54 23.4689 157.372 23.4689C157.07 23.4689 149.963 23.5688 147.873 30.3337C145.822 36.9704 147.72 41.5191 147.739 41.5643C147.781 41.661 147.798 41.7666 147.789 41.8716C147.779 41.9766 147.745 42.0777 147.687 42.1657C147.629 42.2538 147.551 42.3261 147.458 42.3762C147.366 42.4262 147.263 42.4524 147.158 42.4525L147.159 42.4529Z" fill="#367CFF"/>
<path d="M147.672 47.7429C150.329 47.7429 152.484 45.5795 152.484 42.9107C152.484 40.2419 150.329 38.0785 147.672 38.0785C145.014 38.0785 142.86 40.2419 142.86 42.9107C142.86 45.5795 145.014 47.7429 147.672 47.7429Z" fill="#367CFF"/>
<path opacity="0.3" d="M147.672 47.7429C150.329 47.7429 152.484 45.5795 152.484 42.9107C152.484 40.2419 150.329 38.0785 147.672 38.0785C145.014 38.0785 142.86 40.2419 142.86 42.9107C142.86 45.5795 145.014 47.7429 147.672 47.7429Z" fill="white"/>
<path d="M148.826 47.7429C151.484 47.7429 153.638 45.5795 153.638 42.9107C153.638 40.2419 151.484 38.0785 148.826 38.0785C146.169 38.0785 144.014 40.2419 144.014 42.9107C144.014 45.5795 146.169 47.7429 148.826 47.7429Z" fill="#367CFF"/>
<path d="M171.525 34.216C171.525 34.216 173.071 41.6552 174.918 43.906C180.233 50.3851 182.566 58.1682 178.752 62.9156C174.938 67.6631 148.365 71.4975 144.968 62.2255C142.109 54.4195 145.176 53.0372 145.214 46.2733C145.23 43.2126 145.652 36.7579 145.652 36.7579" fill="#0A0A0A"/>
<path d="M149.317 58.2897C149.365 58.2833 149.904 67.2651 160.295 66.482C167.489 65.9409 170.053 58.2763 170.219 58.2763C169.444 58.1109 168.138 57.8701 167.793 57.6856C166.66 57.0743 165.26 56.4384 164.894 54.2295C164.683 52.9573 165.041 46.4432 164.931 45.1544L153.889 47.6293C154.043 50.3497 155.123 56.6566 151.338 57.7727C150.707 57.9587 150.029 58.1285 149.317 58.2897Z" fill="#E98862"/>
<path opacity="0.5" d="M153.733 55.1966C153.906 54.6368 154.017 54.0598 154.065 53.4757C154.186 52.1428 154.162 50.8005 153.993 49.4729C156.237 49.1688 158.351 48.2386 160.095 46.7881C160.3 47.5485 161.428 50.8711 161.115 51.5937C160.526 52.9598 157.753 55.1966 153.733 55.1966Z" fill="#0C0C0C"/>
<path d="M155.699 53.2236C160.069 53.0586 165.419 50.5698 165.8 44.6436L166.145 39.2966C166.526 33.3707 163.736 28.3654 158.18 28.0045C152.623 27.6441 148.161 32.178 147.779 38.1041L147.627 40.4712C147.48 42.7459 147.9 53.5172 155.699 53.2236Z" fill="#E98862"/>
<path opacity="0.1" d="M157.425 45.293C158.146 45.282 158.725 44.8423 158.717 44.3109C158.709 43.7796 158.117 43.3578 157.396 43.3689C156.674 43.3799 156.096 43.8196 156.104 44.351C156.112 44.8823 156.704 45.3041 157.425 45.293Z" fill="#0C0C0C"/>
<path opacity="0.1" d="M149.642 44.217C149.649 44.7471 149.071 45.1871 148.349 45.1992C148.225 45.201 148.1 45.1898 147.977 45.1659C147.861 44.5478 147.779 43.949 147.722 43.392C147.913 43.3159 148.116 43.2761 148.321 43.2748C149.043 43.2627 149.634 43.6844 149.642 44.217Z" fill="#0C0C0C"/>
<path d="M149.446 40.2255C149.823 40.2255 150.129 39.9182 150.129 39.5392C150.129 39.1601 149.823 38.8528 149.446 38.8528C149.068 38.8528 148.762 39.1601 148.762 39.5392C148.762 39.9182 149.068 40.2255 149.446 40.2255Z" fill="#0C0C0C"/>
<path d="M156.209 40.7329C156.586 40.7329 156.892 40.4256 156.892 40.0466C156.892 39.6675 156.586 39.3602 156.209 39.3602C155.831 39.3602 155.525 39.6675 155.525 40.0466C155.525 40.4256 155.831 40.7329 156.209 40.7329Z" fill="#0C0C0C"/>
<path opacity="0.5" d="M152.997 45.4063H152.986C152.761 45.3899 152.536 45.3612 152.314 45.3202C151.982 45.2566 151.543 45.1375 151.562 44.8413C151.583 44.5035 152.74 40.9201 152.872 40.5126C152.884 40.4783 152.909 40.4502 152.942 40.4343C152.975 40.4183 153.012 40.4157 153.047 40.4269C153.082 40.4382 153.11 40.4625 153.128 40.4947C153.145 40.527 153.149 40.5646 153.139 40.5997C152.646 42.1264 151.858 44.6322 151.843 44.8595C151.892 44.9579 152.446 45.0881 153.004 45.1245C153.04 45.1272 153.074 45.1437 153.098 45.1707C153.122 45.1976 153.135 45.2328 153.134 45.2691C153.134 45.3053 153.119 45.3398 153.093 45.3654C153.067 45.391 153.033 45.4057 152.997 45.4065L152.997 45.4063Z" fill="#0C0C0C"/>
<path opacity="0.5" d="M154.107 47.8072C153.207 47.8015 152.322 47.5836 151.521 47.1711C151.504 47.1629 151.49 47.1516 151.477 47.1377C151.465 47.1238 151.456 47.1076 151.45 47.0901C151.438 47.0547 151.44 47.016 151.457 46.9824C151.473 46.9488 151.502 46.9231 151.537 46.911C151.572 46.8988 151.611 46.9013 151.645 46.9177C153.371 47.7658 154.981 47.7387 156.298 46.8393C156.324 46.8202 156.352 46.8026 156.38 46.7865C156.413 46.7713 156.451 46.7697 156.485 46.7817C156.519 46.7938 156.548 46.8188 156.564 46.8513C156.58 46.8839 156.584 46.9215 156.573 46.9564C156.562 46.9912 156.539 47.0206 156.507 47.0384C156.496 47.0443 156.479 47.0562 156.455 47.0727C155.763 47.5467 154.945 47.8024 154.107 47.8072Z" fill="#0C0C0C"/>
<path d="M170.643 40.5756L165.666 40.2811C161.796 39.2387 159.896 32.9682 159.896 32.9682C159.896 32.9682 156.8 37.9042 145.643 36.7528C145.643 36.7528 145.099 21.0691 161.684 23.7246C167.018 24.5787 171.379 29.2831 171.774 36.3311C172.051 41.2704 170.643 40.5756 170.643 40.5756Z" fill="#0A0A0A"/>
<path d="M165.339 46.4266C167.028 46.5365 168.513 44.8112 168.622 43.1155C168.731 41.4199 167.423 40.396 165.734 40.2864L164.791 41.366L163.887 46.3325L165.339 46.4266Z" fill="#E98862"/>
<path d="M151.345 37.9869C150.895 37.7505 150.39 37.6381 149.882 37.6612C149.627 37.6712 149.374 37.7197 149.133 37.8051C148.89 37.8902 148.659 38.0055 148.444 38.1484L148.437 38.1527C148.413 38.1674 148.385 38.1721 148.357 38.1658C148.33 38.1596 148.306 38.1428 148.291 38.1192C148.276 38.0955 148.27 38.0668 148.276 38.0392C148.282 38.0116 148.298 37.9872 148.321 37.9714C148.547 37.8095 148.792 37.6768 149.051 37.5766C149.312 37.4743 149.586 37.412 149.865 37.3917C150.43 37.3471 150.996 37.4555 151.505 37.7055C151.543 37.7247 151.573 37.7584 151.586 37.7991C151.6 37.8399 151.597 37.8844 151.577 37.9228C151.558 37.9613 151.525 37.9905 151.484 38.0041C151.444 38.0177 151.399 38.0145 151.361 37.9953L151.357 37.9932L151.345 37.9869Z" fill="#0C0C0C"/>
<path d="M155.858 38.0017C156.394 37.8172 156.969 37.7806 157.524 37.8957C157.799 37.9507 158.063 38.0468 158.309 38.1807C158.554 38.3125 158.781 38.4748 158.985 38.6637C159.005 38.6824 159.018 38.7084 159.02 38.7362C159.022 38.7641 159.013 38.7916 158.995 38.813C158.977 38.8344 158.952 38.848 158.924 38.851C158.897 38.854 158.869 38.8461 158.847 38.8291L158.84 38.824C158.645 38.6553 158.43 38.5119 158.199 38.3971C157.971 38.2822 157.726 38.2026 157.474 38.1609C156.973 38.0745 156.458 38.1229 155.982 38.3011L155.97 38.3058C155.951 38.3135 155.93 38.3173 155.908 38.3168C155.887 38.3164 155.866 38.3118 155.847 38.3032C155.827 38.2947 155.81 38.2824 155.795 38.267C155.781 38.2517 155.769 38.2336 155.761 38.2137C155.754 38.1939 155.75 38.1728 155.75 38.1515C155.751 38.1302 155.755 38.1092 155.764 38.0897C155.772 38.0702 155.785 38.0526 155.8 38.0379C155.815 38.0231 155.833 38.0116 155.853 38.0038L155.858 38.0017Z" fill="#0C0C0C"/>
<path opacity="0.52" d="M154.08 49.1453C153.917 49.1467 153.755 49.1343 153.594 49.1082C153.576 49.1053 153.559 49.0988 153.543 49.0891C153.527 49.0795 153.514 49.0667 153.503 49.0518C153.492 49.0368 153.484 49.0198 153.48 49.0018C153.476 48.9837 153.475 48.9651 153.478 48.9468C153.481 48.9285 153.487 48.9109 153.497 48.8951C153.506 48.8794 153.519 48.8656 153.534 48.8547C153.549 48.8439 153.566 48.8361 153.584 48.8317C153.602 48.8274 153.62 48.8267 153.639 48.8296C154.605 48.984 155.092 48.561 155.112 48.5429C155.14 48.5179 155.176 48.5048 155.213 48.5067C155.251 48.5086 155.286 48.5253 155.311 48.553C155.336 48.5808 155.349 48.6173 155.347 48.6547C155.345 48.6921 155.328 48.7271 155.301 48.7522C154.951 49.0209 154.52 49.1598 154.08 49.1453Z" fill="#0C0C0C"/>
<path d="M165.72 40.2068C162.297 39.4302 160.911 37.3156 160.352 35.6782C159.986 34.5855 159.851 33.4279 159.956 32.2798L160.062 32.294C159.959 33.4271 160.092 34.5694 160.454 35.6477C161.005 37.2579 162.37 39.3371 165.745 40.1036L165.72 40.2068Z" fill="#0C0C0C"/>
<path d="M113.074 61.7471L109.685 55.3312C109.611 55.1903 109.508 55.0665 109.383 54.9677C109.258 54.8689 109.115 54.7973 108.961 54.7574C108.807 54.7175 108.646 54.7102 108.49 54.736C108.333 54.7618 108.183 54.8201 108.05 54.9071C107.809 55.0755 107.639 55.3276 107.573 55.6148C107.506 55.9019 107.549 56.2035 107.691 56.4611L108.418 57.8368L104.155 54.5636C103.688 54.1913 102.877 54.0348 102.496 54.5891C102.335 54.7927 102.248 55.045 102.249 55.3047C102.249 55.5644 102.337 55.8163 102.499 56.0193C102.494 56.0229 102.49 56.0268 102.486 56.0311C102.483 56.0349 102.483 56.0394 102.48 56.0432L101.76 55.468C101.626 55.3617 101.471 55.2867 101.304 55.2485C101.138 55.2102 100.966 55.2097 100.799 55.2469C100.633 55.2841 100.477 55.3581 100.343 55.4635C100.209 55.5689 100.099 55.7031 100.023 55.8562C99.9084 56.0998 99.8802 56.3756 99.9435 56.6375C100.007 56.8995 100.158 57.1317 100.371 57.2953L100.678 57.5395C100.675 57.5517 100.674 57.5644 100.676 57.5768C100.43 57.4601 100.152 57.4349 99.8895 57.5056C99.6272 57.5763 99.3986 57.7383 99.2444 57.9627C99.0829 58.2134 99.0215 58.5159 99.0724 58.81C99.1233 59.1041 99.2827 59.3681 99.5189 59.5494L100.281 60.156C100.264 60.155 100.247 60.1581 100.232 60.165C100.217 60.1718 100.203 60.1823 100.192 60.1955C100.181 60.2117 100.174 60.231 100.173 60.251C99.9257 60.2081 99.6712 60.2479 99.4486 60.3643C99.226 60.4808 99.0476 60.6674 98.941 60.8956C98.8338 61.1375 98.8111 61.4087 98.8765 61.6652C98.9419 61.9217 99.0916 62.1486 99.3014 62.309L105.732 67.4277C106.631 68.1437 107.723 68.5737 108.868 68.6625C110.012 68.7513 111.157 68.4948 112.155 67.926C113.016 67.4355 113.653 66.6274 113.93 65.6732C114.207 64.7191 114.102 63.6941 113.639 62.816L113.074 61.7471Z" fill="#E98862"/>
<g opacity="0.2">
<path opacity="0.2" d="M106.702 59.2797C106.685 59.3013 106.66 59.3152 106.632 59.3185C106.605 59.3218 106.577 59.3142 106.555 59.2973L102.506 56.1793C102.495 56.1709 102.486 56.1603 102.479 56.1482C102.472 56.1362 102.467 56.1228 102.466 56.109C102.464 56.0952 102.465 56.0812 102.468 56.0677C102.472 56.0543 102.478 56.0417 102.487 56.0306C102.495 56.0195 102.505 56.0103 102.517 56.0033C102.53 55.9963 102.543 55.9918 102.557 55.99C102.57 55.9882 102.584 55.9891 102.598 55.9927C102.611 55.9963 102.624 56.0025 102.635 56.011L106.684 59.1292C106.706 59.1463 106.721 59.1715 106.724 59.1993C106.728 59.2272 106.72 59.2553 106.704 59.2776L106.702 59.2797Z" fill="#0C0C0C"/>
</g>
<g opacity="0.2">
<path opacity="0.2" d="M105.382 61.111C105.364 61.1326 105.339 61.1465 105.312 61.1498C105.285 61.1531 105.257 61.1455 105.235 61.1286L100.717 57.6489C100.694 57.6319 100.68 57.6066 100.676 57.5788C100.672 57.551 100.68 57.5228 100.697 57.5005C100.715 57.4791 100.74 57.4652 100.767 57.4615C100.794 57.4579 100.822 57.4648 100.845 57.4808L105.364 60.9596C105.386 60.9767 105.401 61.002 105.404 61.0298C105.408 61.0576 105.401 61.0858 105.384 61.1081L105.382 61.111Z" fill="#0C0C0C"/>
</g>
<g opacity="0.2">
<path opacity="0.2" d="M103.963 63.1029C103.946 63.1244 103.921 63.1384 103.894 63.1416C103.866 63.1449 103.839 63.1373 103.817 63.1205L100.212 60.3447C100.19 60.3276 100.175 60.3023 100.171 60.2744C100.168 60.2465 100.175 60.2183 100.192 60.196C100.209 60.1736 100.235 60.159 100.262 60.1554C100.29 60.1517 100.318 60.1592 100.34 60.1764L103.945 62.9527C103.967 62.9698 103.982 62.9951 103.986 63.0229C103.989 63.0507 103.982 63.0789 103.965 63.1012L103.963 63.1029Z" fill="#0C0C0C"/>
</g>
<path d="M137.208 62.1027L126.252 81.3878L115.054 60.8557L101.672 68.3583L119.687 100.146C120.271 101.168 121.084 102.038 122.063 102.686C123.704 103.767 125.706 104.148 127.627 103.746C129.548 103.344 131.232 102.193 132.308 100.545L132.4 100.403L151.615 70.9589L137.208 62.1027Z" fill="#367CFF"/>
<path d="M113.074 61.7471L109.685 55.3312C109.611 55.1903 109.508 55.0665 109.383 54.9677C109.258 54.8689 109.115 54.7973 108.961 54.7574C108.807 54.7175 108.646 54.7102 108.49 54.736C108.333 54.7618 108.183 54.8201 108.05 54.9071C107.809 55.0755 107.639 55.3277 107.573 55.6148C107.506 55.9019 107.549 56.2035 107.691 56.4611L108.418 57.8368L109.547 60.321" fill="#E98862"/>
<path d="M160.489 64.2368C167.687 63.8961 167.99 57.7607 167.99 57.7607C167.99 57.7607 171.557 57.992 173.928 58.3143C177.81 58.8416 180.371 60.1634 182.409 62.2098C184.305 64.1136 185.459 66.1731 184.237 79.3232C183.353 88.8435 183.975 109.788 183.975 109.788H140.531C140.531 109.788 137.926 82.337 137.563 78.051C136.87 69.8688 134.032 65.2569 137.999 61.0421C140.876 57.9854 148.303 57.7607 151.292 57.7611C151.341 57.7611 150.686 64.7009 160.489 64.2368Z" fill="#367CFF"/>
<path d="M137.816 76.6827C137.814 76.6546 137.801 76.6284 137.78 76.6097C137.759 76.5911 137.732 76.5816 137.704 76.5834C137.676 76.5852 137.65 76.598 137.631 76.6192C137.612 76.6403 137.603 76.668 137.605 76.6961L138.488 90.8659C138.49 90.8913 138.5 90.9153 138.518 90.9335C138.536 90.9517 138.56 90.9628 138.585 90.9649C138.59 90.9652 138.595 90.9652 138.6 90.9649C138.614 90.964 138.627 90.9604 138.64 90.9543C138.652 90.9482 138.664 90.9396 138.673 90.9292C138.682 90.9187 138.689 90.9065 138.693 90.8933C138.698 90.8802 138.7 90.8662 138.699 90.8523" fill="#0C0C0C"/>
<path d="M147.387 97.3673L140.36 95.6525C140.206 95.6149 140.045 95.6099 139.889 95.638C139.732 95.6661 139.583 95.7265 139.451 95.8156C139.32 95.9046 139.208 96.0202 139.123 96.155C139.038 96.2899 138.982 96.441 138.958 96.5988C138.923 96.8915 138.998 97.1866 139.168 97.427C139.338 97.6673 139.591 97.8358 139.877 97.8997L141.384 98.2673L136.117 99.2953C135.529 99.3992 134.874 99.9042 135.034 100.559C135.079 100.814 135.209 101.047 135.403 101.219C135.597 101.391 135.843 101.492 136.101 101.506C136.101 101.511 136.101 101.517 136.101 101.523C136.101 101.528 136.105 101.531 136.106 101.535L135.2 101.696C135.033 101.726 134.873 101.793 134.735 101.892C134.596 101.991 134.481 102.121 134.398 102.27C134.316 102.42 134.267 102.586 134.257 102.757C134.246 102.928 134.273 103.099 134.337 103.258C134.442 103.506 134.629 103.71 134.866 103.836C135.103 103.962 135.376 104.003 135.64 103.952L136.025 103.883C136.032 103.894 136.041 103.903 136.051 103.91C135.801 104.017 135.598 104.209 135.476 104.453C135.355 104.697 135.324 104.976 135.389 105.241C135.468 105.529 135.652 105.776 135.905 105.933C136.158 106.09 136.46 106.146 136.752 106.089L137.71 105.919C137.698 105.931 137.689 105.946 137.684 105.962C137.679 105.978 137.678 105.995 137.681 106.012C137.685 106.032 137.695 106.05 137.709 106.064C137.513 106.221 137.374 106.438 137.313 106.683C137.252 106.927 137.272 107.185 137.371 107.417C137.48 107.658 137.667 107.855 137.902 107.976C138.136 108.097 138.404 108.135 138.663 108.084L146.744 106.653C147.875 106.453 148.92 105.918 149.746 105.117C150.572 104.317 151.141 103.287 151.38 102.159C151.586 101.187 151.407 100.173 150.88 99.3313C150.353 98.4898 149.52 97.8878 148.559 97.6531L147.387 97.3673Z" fill="#E98862"/>
<g opacity="0.2">
<path opacity="0.2" d="M141.32 100.514C141.325 100.542 141.318 100.57 141.303 100.593C141.287 100.615 141.263 100.631 141.236 100.636L136.225 101.607C136.212 101.61 136.198 101.61 136.184 101.607C136.17 101.604 136.158 101.599 136.146 101.591C136.135 101.583 136.125 101.573 136.117 101.562C136.11 101.55 136.104 101.537 136.102 101.523C136.099 101.51 136.099 101.495 136.102 101.482C136.105 101.468 136.11 101.455 136.118 101.444C136.126 101.432 136.136 101.422 136.147 101.415C136.159 101.407 136.172 101.402 136.185 101.399L141.196 100.428C141.209 100.425 141.223 100.425 141.237 100.428C141.251 100.431 141.264 100.436 141.275 100.444C141.287 100.452 141.296 100.462 141.304 100.474C141.312 100.486 141.317 100.499 141.319 100.513L141.32 100.514Z" fill="#0C0C0C"/>
</g>
<g opacity="0.2">
<path opacity="0.2" d="M141.809 102.722C141.813 102.749 141.807 102.777 141.791 102.8C141.775 102.822 141.751 102.838 141.724 102.843L136.132 103.927C136.119 103.93 136.105 103.93 136.091 103.927C136.077 103.924 136.065 103.918 136.053 103.911C136.042 103.903 136.032 103.893 136.024 103.881C136.017 103.869 136.011 103.856 136.009 103.842C136.004 103.815 136.011 103.787 136.027 103.763C136.042 103.74 136.066 103.724 136.093 103.718L141.685 102.634C141.699 102.632 141.713 102.632 141.726 102.635C141.74 102.638 141.753 102.643 141.764 102.651C141.776 102.659 141.786 102.669 141.793 102.681C141.801 102.692 141.806 102.705 141.809 102.719V102.722Z" fill="#0C0C0C"/>
</g>
<g opacity="0.2">
<path opacity="0.2" d="M142.349 105.109C142.354 105.136 142.348 105.164 142.332 105.187C142.316 105.21 142.292 105.226 142.265 105.231L137.804 106.095C137.791 106.098 137.777 106.098 137.763 106.095C137.75 106.092 137.737 106.087 137.725 106.079C137.714 106.071 137.704 106.061 137.696 106.05C137.689 106.038 137.683 106.025 137.681 106.011C137.678 105.998 137.678 105.984 137.681 105.97C137.684 105.956 137.689 105.943 137.697 105.932C137.705 105.92 137.715 105.91 137.726 105.903C137.738 105.895 137.751 105.89 137.764 105.887L142.225 105.023C142.238 105.02 142.252 105.02 142.266 105.023C142.28 105.026 142.293 105.031 142.304 105.039C142.316 105.047 142.325 105.057 142.333 105.069C142.341 105.08 142.346 105.094 142.348 105.107L142.349 105.109Z" fill="#0C0C0C"/>
</g>
<path d="M146.688 109.429L184.449 109.636C185.665 109.768 186.896 109.617 188.044 109.192C189.192 108.767 190.226 108.081 191.066 107.187C191.905 106.294 192.527 105.217 192.882 104.041C193.238 102.866 193.317 101.624 193.114 100.412L184.702 66.5715C184.535 65.537 184.166 64.5457 183.616 63.6549C183.066 62.7641 182.346 61.9912 181.498 61.3807C180.649 60.7703 179.689 60.3342 178.672 60.0977C177.656 59.8613 176.602 59.8289 175.573 60.0027C174.544 60.1764 173.559 60.5528 172.675 61.1101C171.791 61.6675 171.026 62.3948 170.423 63.2503C169.82 64.1057 169.391 65.0725 169.162 66.0949C168.932 67.1173 168.906 68.1752 169.085 69.2077L175.537 94.7018L146.87 95.6483L146.688 109.429Z" fill="#367CFF"/>
<path d="M180.473 94.5949C180.499 94.5947 180.525 94.5844 180.544 94.5662C180.563 94.548 180.575 94.5232 180.577 94.4966C180.579 94.4701 180.571 94.4438 180.554 94.4229C180.538 94.4021 180.514 94.3882 180.488 94.3841L175.598 94.5625C175.584 94.5602 175.57 94.5607 175.556 94.5639C175.543 94.5672 175.53 94.5732 175.519 94.5815C175.508 94.5898 175.498 94.6003 175.491 94.6123C175.484 94.6243 175.48 94.6377 175.478 94.6515C175.474 94.6793 175.481 94.7076 175.497 94.7301C175.514 94.7527 175.539 94.7678 175.566 94.7719L180.457 94.5936C180.462 94.5945 180.467 94.5949 180.473 94.5949Z" fill="#0C0C0C"/>
<path d="M183.351 109.788C183.379 109.79 183.406 109.78 183.427 109.762C183.449 109.743 183.461 109.717 183.463 109.689C183.465 109.661 183.456 109.633 183.437 109.612C183.419 109.591 183.393 109.578 183.365 109.576L146.908 109.348L147.068 95.7774L175.564 94.7718C175.58 94.774 175.597 94.7723 175.612 94.7668C175.628 94.7613 175.642 94.7523 175.654 94.7403C175.665 94.7284 175.674 94.7139 175.678 94.698C175.683 94.6822 175.684 94.6654 175.682 94.649L172.574 79.3253C172.572 79.3115 172.567 79.2983 172.56 79.2864C172.553 79.2745 172.543 79.2642 172.532 79.2561C172.52 79.248 172.507 79.2422 172.494 79.2392C172.48 79.2362 172.466 79.2359 172.453 79.2384C172.425 79.2431 172.4 79.2586 172.384 79.2815C172.368 79.3044 172.361 79.3328 172.366 79.3605L175.449 94.5421L146.988 95.5523C146.974 95.5504 146.96 95.5514 146.946 95.5551C146.933 95.5589 146.92 95.5653 146.909 95.574C146.898 95.5828 146.889 95.5937 146.882 95.6061C146.875 95.6185 146.871 95.6321 146.869 95.6462L146.687 109.428C146.684 109.456 146.692 109.484 146.709 109.505C146.726 109.527 146.751 109.541 146.778 109.545L183.336 109.787C183.341 109.788 183.346 109.788 183.351 109.788Z" fill="#0C0C0C"/>
<path d="M128.901 105.806L118.57 73.9187C118.389 73.3583 118.035 72.8701 117.561 72.5238C117.086 72.1776 116.514 71.9911 115.927 71.9911H73.8413C73.4026 71.9911 72.9702 72.0953 72.5793 72.2953C72.1884 72.4954 71.8502 72.7855 71.5924 73.1419C71.3346 73.4984 71.1645 73.911 71.0959 74.3462C71.0274 74.7813 71.0624 75.2265 71.1982 75.6455L81.5285 107.533C81.71 108.094 82.0634 108.582 82.5382 108.928C83.013 109.274 83.5847 109.461 84.1714 109.461H126.257C126.696 109.461 127.129 109.356 127.52 109.156C127.91 108.956 128.249 108.666 128.506 108.31C128.764 107.953 128.934 107.541 129.003 107.106C129.071 106.67 129.036 106.225 128.901 105.806Z" fill="#292A2E"/>
<path d="M148.646 106.875H120.474C119.772 106.875 119.203 107.447 119.203 108.152V108.184C119.203 108.889 119.772 109.461 120.474 109.461H148.646C149.348 109.461 149.917 108.889 149.917 108.184V108.152C149.917 107.447 149.348 106.875 148.646 106.875Z" fill="#292A2E"/>
<path d="M99.4161 96.0778C101.854 96.0778 103.83 94.0933 103.83 91.6453C103.83 89.1973 101.854 87.2127 99.4161 87.2127C96.9782 87.2127 95.002 89.1973 95.002 91.6453C95.002 94.0933 96.9782 96.0778 99.4161 96.0778Z" fill="white"/>
<path d="M168.21 42.1855C168.042 42.1855 167.881 42.1185 167.762 41.9992C167.643 41.8799 167.576 41.7181 167.576 41.5494V34.3034C167.576 30.6161 166.56 27.6945 164.637 25.8545C162.815 24.1103 160.199 23.3082 156.867 23.4687C156.783 23.4732 156.7 23.4611 156.621 23.433C156.543 23.405 156.47 23.3617 156.408 23.3055C156.346 23.2493 156.296 23.1814 156.26 23.1056C156.225 23.0299 156.204 22.9478 156.2 22.864C156.196 22.7803 156.209 22.6966 156.237 22.6178C156.265 22.5389 156.309 22.4665 156.365 22.4046C156.421 22.3427 156.489 22.2926 156.565 22.2571C156.641 22.2217 156.722 22.2016 156.806 22.198C160.499 22.0188 163.429 22.9401 165.512 24.9332C167.692 27.0194 168.844 30.2595 168.844 34.3032V41.5492C168.844 41.6329 168.828 41.7157 168.796 41.7929C168.764 41.8702 168.717 41.9404 168.658 41.9995C168.599 42.0586 168.529 42.1054 168.452 42.1373C168.375 42.1693 168.293 42.1857 168.21 42.1855Z" fill="#367CFF"/>
<path d="M167.263 47.7429C169.921 47.7429 172.075 45.5795 172.075 42.9107C172.075 40.2419 169.921 38.0785 167.263 38.0785C164.605 38.0785 162.451 40.2419 162.451 42.9107C162.451 45.5795 164.605 47.7429 167.263 47.7429Z" fill="#367CFF"/>
<path d="M167.449 46.5305C167.415 46.506 167.377 46.4885 167.336 46.4788C167.296 46.4691 167.254 46.4675 167.213 46.4741C167.172 46.4808 167.132 46.4954 167.097 46.5173C167.061 46.5392 167.031 46.5679 167.006 46.6018L166.638 47.1126C166.187 47.737 165.595 48.2454 164.911 48.5963C164.226 48.9472 163.469 49.1307 162.701 49.1318H156.842V49.0073C156.842 48.8386 156.776 48.6768 156.657 48.5575C156.538 48.4382 156.377 48.3712 156.209 48.3712H154.226C154.058 48.3712 153.897 48.4382 153.778 48.5575C153.66 48.6768 153.593 48.8386 153.593 49.0073V49.9386C153.593 50.1073 153.66 50.2691 153.778 50.3884C153.897 50.5077 154.058 50.5747 154.226 50.5747H156.209C156.377 50.5747 156.538 50.5077 156.657 50.3884C156.776 50.2691 156.842 50.1073 156.842 49.9386V49.7689H162.701C163.569 49.7677 164.425 49.5603 165.199 49.1637C165.972 48.767 166.641 48.1924 167.151 47.4866L167.52 46.9758C167.544 46.9419 167.562 46.9035 167.572 46.8628C167.581 46.822 167.583 46.7797 167.576 46.7384C167.57 46.697 167.555 46.6573 167.533 46.6217C167.511 46.586 167.483 46.555 167.449 46.5305Z" fill="#367CFF"/>
<path d="M168.417 47.7429C171.075 47.7429 173.23 45.5795 173.23 42.9107C173.23 40.2419 171.075 38.0785 168.417 38.0785C165.76 38.0785 163.605 40.2419 163.605 42.9107C163.605 45.5795 165.76 47.7429 168.417 47.7429Z" fill="#367CFF"/>
<path opacity="0.3" d="M168.417 47.7429C171.075 47.7429 173.23 45.5795 173.23 42.9107C173.23 40.2419 171.075 38.0785 168.417 38.0785C165.76 38.0785 163.605 40.2419 163.605 42.9107C163.605 45.5795 165.76 47.7429 168.417 47.7429Z" fill="white"/>
<path d="M77.023 110H193.789C193.845 110 193.899 109.978 193.938 109.938C193.978 109.898 194 109.844 194 109.788C194 109.732 193.978 109.678 193.938 109.638C193.899 109.598 193.845 109.576 193.789 109.576H77.023C76.967 109.576 76.9133 109.598 76.8737 109.638C76.8341 109.678 76.8118 109.732 76.8118 109.788C76.8118 109.844 76.8341 109.898 76.8737 109.938C76.9133 109.978 76.967 110 77.023 110Z" fill="#292A2E"/>
</g>
<defs>
<clipPath id="clip0_5_204">
<rect width="194" height="110" fill="white"/>
</clipPath>
</defs>
</svg>
