<svg width="169" height="138" viewBox="0 0 169 138" fill="none" xmlns="http://www.w3.org/2000/svg">
<g clip-path="url(#clip0_5_290)">
<path d="M155.054 16H26V109.211H155.054V16Z" fill="#DEE8F5"/>
<path d="M155.054 16H26V23.6783H155.054V16Z" fill="#C1D8ED"/>
<path d="M150.732 21.7656C151.799 21.7656 152.663 20.9031 152.663 19.8391C152.663 18.7752 151.799 17.9127 150.732 17.9127C149.665 17.9127 148.8 18.7752 148.8 19.8391C148.8 20.9031 149.665 21.7656 150.732 21.7656Z" fill="white"/>
<path d="M155.505 101.358C162.22 101.358 167.664 95.9288 167.664 89.2314C167.664 82.5341 162.22 77.1048 155.505 77.1048C148.789 77.1048 143.346 82.5341 143.346 89.2314C143.346 95.9288 148.789 101.358 155.505 101.358Z" fill="#FFD700"/>
<g opacity="0.29">
<path opacity="0.29" d="M155.505 97.0926C159.858 97.0926 163.387 93.573 163.387 89.2314C163.387 84.8898 159.858 81.3703 155.505 81.3703C151.151 81.3703 147.622 84.8898 147.622 89.2314C147.622 93.573 151.151 97.0926 155.505 97.0926Z" fill="white"/>
</g>
<path d="M152.926 92.0393L153.661 90.9023C154.244 91.3476 154.753 91.5747 155.295 91.5747C155.945 91.5747 156.231 91.3058 156.231 90.7854C156.231 89.6091 153.205 89.6302 153.205 87.5669C153.205 86.2404 154.126 85.3956 155.579 85.3956C155.991 85.3896 156.4 85.4732 156.777 85.6407C157.154 85.8082 157.49 86.0556 157.761 86.3656L156.918 87.3289C156.501 86.9511 156.148 86.752 155.669 86.752C155.118 86.752 154.818 86.9739 154.818 87.4883C154.818 88.5787 157.845 88.4835 157.845 90.6691C157.845 91.982 156.974 92.9318 155.297 92.9318C154.427 92.9125 153.591 92.5976 152.926 92.0393ZM154.942 84.275H156.061V85.9217H154.942V84.275ZM154.942 92.2447H156.061V94.0517H154.942V92.2447Z" fill="white"/>
<path d="M166.973 131.829H143.631C142.511 131.829 141.604 132.734 141.604 133.851V135.978C141.604 137.095 142.511 138 143.631 138H166.973C168.092 138 169 137.095 169 135.978V133.851C169 132.734 168.092 131.829 166.973 131.829Z" fill="#FFD700"/>
<path d="M163.339 125.658H139.997C138.877 125.658 137.97 126.563 137.97 127.68V129.807C137.97 130.924 138.877 131.829 139.997 131.829H163.339C164.458 131.829 165.366 130.924 165.366 129.807V127.68C165.366 126.563 164.458 125.658 163.339 125.658Z" fill="#FFD700"/>
<path d="M166.973 119.487H143.631C142.511 119.487 141.604 120.392 141.604 121.509V123.636C141.604 124.752 142.511 125.658 143.631 125.658H166.973C168.092 125.658 169 124.752 169 123.636V121.509C169 120.392 168.092 119.487 166.973 119.487Z" fill="#FFD700"/>
<path d="M165.156 113.428H141.814C140.694 113.428 139.787 114.333 139.787 115.45V117.577C139.787 118.694 140.694 119.599 141.814 119.599H165.156C166.276 119.599 167.183 118.694 167.183 117.577V115.45C167.183 114.333 166.276 113.428 165.156 113.428Z" fill="#FFD700"/>
<path d="M161.522 107.257H138.18C137.06 107.257 136.153 108.162 136.153 109.279V111.406C136.153 112.522 137.06 113.428 138.18 113.428H161.522C162.641 113.428 163.549 112.522 163.549 111.406V109.279C163.549 108.162 162.641 107.257 161.522 107.257Z" fill="#FFD700"/>
<path d="M165.156 101.086H141.814C140.694 101.086 139.787 101.991 139.787 103.108V105.235C139.787 106.351 140.694 107.257 141.814 107.257H165.156C166.276 107.257 167.183 106.351 167.183 105.235V103.108C167.183 101.991 166.276 101.086 165.156 101.086Z" fill="#FFD700"/>
<path d="M129.779 131.829H106.437C105.317 131.829 104.41 132.734 104.41 133.851V135.978C104.41 137.095 105.317 138 106.437 138H129.779C130.899 138 131.806 137.095 131.806 135.978V133.851C131.806 132.734 130.899 131.829 129.779 131.829Z" fill="#FFD700"/>
<path d="M131.746 125.658H108.404C107.285 125.658 106.377 126.563 106.377 127.68V129.807C106.377 130.924 107.285 131.829 108.404 131.829H131.746C132.866 131.829 133.773 130.924 133.773 129.807V127.68C133.773 126.563 132.866 125.658 131.746 125.658Z" fill="#FFD700"/>
<path d="M129.779 119.487H106.437C105.317 119.487 104.41 120.392 104.41 121.509V123.636C104.41 124.752 105.317 125.658 106.437 125.658H129.779C130.899 125.658 131.806 124.752 131.806 123.636V121.509C131.806 120.392 130.899 119.487 129.779 119.487Z" fill="#FFD700"/>
<path d="M140.962 29.9082H40.0918V95.7417H140.962V29.9082Z" fill="white"/>
<path d="M51.0815 93.6912C51.0499 93.6912 51.0196 93.6787 50.9973 93.6565C50.9749 93.6342 50.9624 93.604 50.9624 93.5725V32.1099C50.9624 32.0784 50.9749 32.0482 50.9973 32.0259C51.0196 32.0036 51.0499 31.9911 51.0815 31.9911C51.113 31.9911 51.1433 32.0036 51.1657 32.0259C51.188 32.0482 51.2005 32.0784 51.2005 32.1099V93.5725C51.2005 93.604 51.188 93.6342 51.1657 93.6565C51.1433 93.6787 51.113 93.6912 51.0815 93.6912Z" fill="#DEE8F5"/>
<path d="M59.8321 93.6912C59.8005 93.6912 59.7702 93.6787 59.7479 93.6565C59.7256 93.6342 59.713 93.604 59.713 93.5725V32.1099C59.713 32.0784 59.7256 32.0482 59.7479 32.0259C59.7702 32.0036 59.8005 31.9911 59.8321 31.9911C59.8637 31.9911 59.894 32.0036 59.9163 32.0259C59.9386 32.0482 59.9512 32.0784 59.9512 32.1099V93.5725C59.9512 93.604 59.9386 93.6342 59.9163 93.6565C59.894 93.6787 59.8637 93.6912 59.8321 93.6912Z" fill="#DEE8F5"/>
<path d="M68.5825 93.6912C68.5509 93.6912 68.5206 93.6787 68.4983 93.6565C68.476 93.6342 68.4634 93.604 68.4634 93.5725V32.1099C68.4634 32.0784 68.476 32.0482 68.4983 32.0259C68.5206 32.0036 68.5509 31.9911 68.5825 31.9911C68.6141 31.9911 68.6444 32.0036 68.6667 32.0259C68.689 32.0482 68.7016 32.0784 68.7016 32.1099V93.5725C68.7016 93.604 68.689 93.6342 68.6667 93.6565C68.6444 93.6787 68.6141 93.6912 68.5825 93.6912Z" fill="#DEE8F5"/>
<path d="M77.3327 93.6912C77.3011 93.6912 77.2708 93.6787 77.2485 93.6565C77.2262 93.6342 77.2136 93.604 77.2136 93.5725V32.1099C77.2136 32.0784 77.2262 32.0482 77.2485 32.0259C77.2708 32.0036 77.3011 31.9911 77.3327 31.9911C77.3643 31.9911 77.3945 32.0036 77.4169 32.0259C77.4392 32.0482 77.4518 32.0784 77.4518 32.1099V93.5725C77.4518 93.604 77.4392 93.6342 77.4169 93.6565C77.3945 93.6787 77.3643 93.6912 77.3327 93.6912Z" fill="#DEE8F5"/>
<path d="M86.0831 93.6912C86.0515 93.6912 86.0212 93.6787 85.9989 93.6565C85.9766 93.6342 85.964 93.604 85.964 93.5725V32.1099C85.964 32.0784 85.9766 32.0482 85.9989 32.0259C86.0212 32.0036 86.0515 31.9911 86.0831 31.9911C86.1147 31.9911 86.1449 32.0036 86.1673 32.0259C86.1896 32.0482 86.2021 32.0784 86.2021 32.1099V93.5725C86.2021 93.604 86.1896 93.6342 86.1673 93.6565C86.1449 93.6787 86.1147 93.6912 86.0831 93.6912Z" fill="#DEE8F5"/>
<path d="M94.8337 93.6912C94.8021 93.6912 94.7719 93.6787 94.7495 93.6565C94.7272 93.6342 94.7146 93.604 94.7146 93.5725V32.1099C94.7146 32.0784 94.7272 32.0482 94.7495 32.0259C94.7719 32.0036 94.8021 31.9911 94.8337 31.9911C94.8653 31.9911 94.8956 32.0036 94.9179 32.0259C94.9403 32.0482 94.9528 32.0784 94.9528 32.1099V93.5725C94.9528 93.604 94.9403 93.6342 94.9179 93.6565C94.8956 93.6787 94.8653 93.6912 94.8337 93.6912Z" fill="#DEE8F5"/>
<path d="M103.584 93.6912C103.553 93.6912 103.522 93.6787 103.5 93.6565C103.478 93.6342 103.465 93.604 103.465 93.5725V32.1099C103.465 32.0784 103.478 32.0482 103.5 32.0259C103.522 32.0036 103.553 31.9911 103.584 31.9911C103.616 31.9911 103.646 32.0036 103.668 32.0259C103.691 32.0482 103.703 32.0784 103.703 32.1099V93.5725C103.703 93.604 103.691 93.6342 103.668 93.6565C103.646 93.6787 103.616 93.6912 103.584 93.6912Z" fill="#DEE8F5"/>
<path d="M112.335 93.6912C112.303 93.6912 112.273 93.6787 112.251 93.6565C112.228 93.6342 112.216 93.604 112.216 93.5725V32.1099C112.216 32.0784 112.228 32.0482 112.251 32.0259C112.273 32.0036 112.303 31.9911 112.335 31.9911C112.367 31.9911 112.397 32.0036 112.419 32.0259C112.442 32.0482 112.454 32.0784 112.454 32.1099V93.5725C112.454 93.604 112.442 93.6342 112.419 93.6565C112.397 93.6787 112.367 93.6912 112.335 93.6912Z" fill="#DEE8F5"/>
<path d="M121.085 93.6912C121.053 93.6912 121.023 93.6787 121.001 93.6565C120.978 93.6342 120.966 93.604 120.966 93.5725V32.1099C120.966 32.0784 120.978 32.0482 121.001 32.0259C121.023 32.0036 121.053 31.9911 121.085 31.9911C121.117 31.9911 121.147 32.0036 121.169 32.0259C121.192 32.0482 121.204 32.0784 121.204 32.1099V93.5725C121.204 93.604 121.192 93.6342 121.169 93.6565C121.147 93.6787 121.117 93.6912 121.085 93.6912Z" fill="#DEE8F5"/>
<path d="M129.835 93.6912C129.804 93.6912 129.774 93.6787 129.751 93.6565C129.729 93.6342 129.716 93.604 129.716 93.5725V32.1099C129.716 32.0784 129.729 32.0482 129.751 32.0259C129.774 32.0036 129.804 31.9911 129.835 31.9911C129.867 31.9911 129.897 32.0036 129.92 32.0259C129.942 32.0482 129.954 32.0784 129.954 32.1099V93.5725C129.954 93.604 129.942 93.6342 129.92 93.6565C129.897 93.6787 129.867 93.6912 129.835 93.6912Z" fill="#DEE8F5"/>
<path d="M138.586 41.2039H42.3313C42.2997 41.2039 42.2694 41.1914 42.2471 41.1692C42.2248 41.1469 42.2122 41.1167 42.2122 41.0852C42.2122 41.0537 42.2248 41.0235 42.2471 41.0012C42.2694 40.9789 42.2997 40.9664 42.3313 40.9664H138.586C138.617 40.9664 138.648 40.9789 138.67 41.0012C138.692 41.0235 138.705 41.0537 138.705 41.0852C138.705 41.1167 138.692 41.1469 138.67 41.1692C138.648 41.1914 138.617 41.2039 138.586 41.2039Z" fill="#DEE8F5"/>
<path d="M138.586 49.931H42.3313C42.2997 49.931 42.2694 49.9185 42.2471 49.8963C42.2248 49.874 42.2122 49.8438 42.2122 49.8123C42.2122 49.7808 42.2248 49.7506 42.2471 49.7283C42.2694 49.706 42.2997 49.6935 42.3313 49.6935H138.586C138.617 49.6935 138.648 49.706 138.67 49.7283C138.692 49.7506 138.705 49.7808 138.705 49.8123C138.705 49.8438 138.692 49.874 138.67 49.8963C138.648 49.9185 138.617 49.931 138.586 49.931Z" fill="#DEE8F5"/>
<path d="M138.586 58.6581H42.3313C42.2997 58.6581 42.2694 58.6456 42.2471 58.6234C42.2248 58.6011 42.2122 58.5709 42.2122 58.5394C42.2122 58.5079 42.2248 58.4777 42.2471 58.4554C42.2694 58.4331 42.2997 58.4206 42.3313 58.4206H138.586C138.617 58.4206 138.648 58.4331 138.67 58.4554C138.692 58.4777 138.705 58.5079 138.705 58.5394C138.705 58.5709 138.692 58.6011 138.67 58.6234C138.648 58.6456 138.617 58.6581 138.586 58.6581Z" fill="#DEE8F5"/>
<path d="M138.586 67.3852H42.3313C42.2997 67.3852 42.2694 67.3727 42.2471 67.3505C42.2248 67.3282 42.2122 67.298 42.2122 67.2665C42.2122 67.235 42.2248 67.2048 42.2471 67.1825C42.2694 67.1602 42.2997 67.1477 42.3313 67.1477H138.586C138.617 67.1477 138.648 67.1602 138.67 67.1825C138.692 67.2048 138.705 67.235 138.705 67.2665C138.705 67.298 138.692 67.3282 138.67 67.3505C138.648 67.3727 138.617 67.3852 138.586 67.3852Z" fill="#DEE8F5"/>
<path d="M138.586 76.1123H42.3313C42.2997 76.1123 42.2694 76.0998 42.2471 76.0776C42.2248 76.0553 42.2122 76.0251 42.2122 75.9936C42.2122 75.9621 42.2248 75.9319 42.2471 75.9096C42.2694 75.8873 42.2997 75.8748 42.3313 75.8748H138.586C138.617 75.8748 138.648 75.8873 138.67 75.9096C138.692 75.9319 138.705 75.9621 138.705 75.9936C138.705 76.0251 138.692 76.0553 138.67 76.0776C138.648 76.0998 138.617 76.1123 138.586 76.1123Z" fill="#DEE8F5"/>
<path d="M138.586 84.8394H42.3313C42.2997 84.8394 42.2694 84.8269 42.2471 84.8046C42.2248 84.7824 42.2122 84.7522 42.2122 84.7207C42.2122 84.6892 42.2248 84.659 42.2471 84.6367C42.2694 84.6144 42.2997 84.6019 42.3313 84.6019H138.586C138.617 84.6019 138.648 84.6144 138.67 84.6367C138.692 84.659 138.705 84.6892 138.705 84.7207C138.705 84.7522 138.692 84.7824 138.67 84.8046C138.648 84.8269 138.617 84.8394 138.586 84.8394Z" fill="#DEE8F5"/>
<path d="M138.586 93.6912H42.3313C42.2997 93.6912 42.2694 93.6787 42.2471 93.6565C42.2248 93.6342 42.2122 93.604 42.2122 93.5725V32.1099C42.2122 32.0784 42.2248 32.0482 42.2471 32.0259C42.2694 32.0036 42.2997 31.9911 42.3313 31.9911H138.586C138.617 31.9911 138.648 32.0036 138.67 32.0259C138.692 32.0482 138.705 32.0784 138.705 32.1099V93.5725C138.705 93.604 138.692 93.6342 138.67 93.6565C138.648 93.6787 138.617 93.6912 138.586 93.6912ZM42.4504 93.4537H138.467V32.2286H42.4504V93.4537Z" fill="#DEE8F5"/>
<path d="M46.6407 78.2497H44.4848V86.6395H46.6407V78.2497Z" fill="#8DDBE0"/>
<path d="M45.7839 74.5319H45.3417V90.357H45.7839V74.5319Z" fill="#8DDBE0"/>
<path d="M49.9715 67.0646H47.8155V78.4628H49.9715V67.0646Z" fill="#8DDBE0"/>
<path d="M49.1146 63.3471H48.6724V82.1805H49.1146V63.3471Z" fill="#8DDBE0"/>
<path d="M53.3022 67.1568H51.1462V72.568H53.3022V67.1568Z" fill="#FD5D76"/>
<path d="M52.4453 63.439H52.0031V76.2855H52.4453V63.439Z" fill="#FD5D76"/>
<path d="M56.6328 59.6346H54.4769V72.6539H56.6328V59.6346Z" fill="#8DDBE0"/>
<path d="M55.776 55.9168H55.3338V76.3715H55.776V55.9168Z" fill="#8DDBE0"/>
<path d="M59.9636 59.5376H57.8076V63.681H59.9636V59.5376Z" fill="#FD5D76"/>
<path d="M59.1067 55.8199H58.6645V67.3985H59.1067V55.8199Z" fill="#FD5D76"/>
<path d="M63.2943 63.5257H61.1383V68.9369H63.2943V63.5257Z" fill="#FD5D76"/>
<path d="M62.4374 59.8082H61.9952V72.6546H62.4374V59.8082Z" fill="#FD5D76"/>
<path d="M66.625 57.2763H64.469V69.0276H66.625V57.2763Z" fill="#8DDBE0"/>
<path d="M65.7681 53.5588H65.3259V72.7454H65.7681V53.5588Z" fill="#8DDBE0"/>
<path d="M69.9557 69.0839H67.7997V77.3484H69.9557V69.0839Z" fill="#FD5D76"/>
<path d="M69.0988 65.3664H68.6566V81.0661H69.0988V65.3664Z" fill="#FD5D76"/>
<path d="M73.2864 60.9171H71.1304V69.1815H73.2864V60.9171Z" fill="#8DDBE0"/>
<path d="M72.4295 57.1996H71.9873V72.8993H72.4295V57.1996Z" fill="#8DDBE0"/>
<path d="M76.6171 55.8505H74.4611V60.9449H76.6171V55.8505Z" fill="#8DDBE0"/>
<path d="M75.7602 52.133H75.318V64.6626H75.7602V52.133Z" fill="#8DDBE0"/>
<path d="M79.9478 55.7555H77.7918V63.9038H79.9478V55.7555Z" fill="#FD5D76"/>
<path d="M79.0909 52.0378H78.6487V67.6213H79.0909V52.0378Z" fill="#FD5D76"/>
<path d="M83.2785 63.9895H81.1225V67.1812H83.2785V63.9895Z" fill="#FD5D76"/>
<path d="M82.4216 60.272H81.9794V70.899H82.4216V60.272Z" fill="#FD5D76"/>
<path d="M86.6092 60.1535H84.4532V63.9651H86.6092V60.1535Z" fill="#8DDBE0"/>
<path d="M85.7523 56.436H85.3101V67.6828H85.7523V56.436Z" fill="#8DDBE0"/>
<path d="M89.9399 58.0506H87.7839V60.3107H89.9399V58.0506Z" fill="#8DDBE0"/>
<path d="M89.0828 54.3331H88.6405V64.0285H89.0828V54.3331Z" fill="#8DDBE0"/>
<path d="M93.2705 48.9135H91.1146V58.0442H93.2705V48.9135Z" fill="#8DDBE0"/>
<path d="M92.4135 45.196H91.9712V61.7619H92.4135V45.196Z" fill="#8DDBE0"/>
<path d="M96.6013 49.0219H94.4453V50.8388H96.6013V49.0219Z" fill="#FD5D76"/>
<path d="M95.7442 45.3043H95.3019V54.5566H95.7442V45.3043Z" fill="#FD5D76"/>
<path d="M99.9317 47.1018H97.7758V49.1404H99.9317V47.1018Z" fill="#8DDBE0"/>
<path d="M99.0748 43.384H98.6327V52.8579H99.0748V43.384Z" fill="#8DDBE0"/>
<path d="M103.262 47.2099H101.107V56.7839H103.262V47.2099Z" fill="#FD5D76"/>
<path d="M102.406 43.4924H101.963V60.5017H102.406V43.4924Z" fill="#FD5D76"/>
<path d="M106.593 56.6369H104.437V61.3584H106.593V56.6369Z" fill="#FD5D76"/>
<path d="M105.736 52.9192H105.294V65.0759H105.736V52.9192Z" fill="#FD5D76"/>
<path d="M109.924 61.2924H107.768V63.1093H109.924V61.2924Z" fill="#FD5D76"/>
<path d="M109.067 57.5749H108.625V66.8271H109.067V57.5749Z" fill="#FD5D76"/>
<path d="M113.254 56.7402H111.099V63.2115H113.254V56.7402Z" fill="#8DDBE0"/>
<path d="M112.398 53.0225H111.955V66.929H112.398V53.0225Z" fill="#8DDBE0"/>
<path d="M133.239 41.1847H131.083V49.8721H133.239V41.1847Z" fill="#8DDBE0"/>
<path d="M132.382 37.4672H131.94V53.5899H132.382V37.4672Z" fill="#8DDBE0"/>
<path d="M136.569 39.1611H134.413V41.1997H136.569V39.1611Z" fill="#8DDBE0"/>
<path d="M135.713 35.4436H135.27V44.9174H135.713V35.4436Z" fill="#8DDBE0"/>
<path d="M116.585 54.5238H114.429V56.784H116.585V54.5238Z" fill="#8DDBE0"/>
<path d="M115.728 50.8063H115.286V60.5017H115.728V50.8063Z" fill="#8DDBE0"/>
<path d="M119.916 50.0911H117.76V54.5675H119.916V50.0911Z" fill="#8DDBE0"/>
<path d="M119.059 46.3736H118.617V58.2852H119.059V46.3736Z" fill="#8DDBE0"/>
<path d="M123.247 43.2902H121.091V49.9831H123.247V43.2902Z" fill="#8DDBE0"/>
<path d="M122.39 39.5725H121.948V53.7006H122.39V39.5725Z" fill="#8DDBE0"/>
<path d="M126.577 43.2902H124.421V45.5504H126.577V43.2902Z" fill="#FD5D76"/>
<path d="M125.72 39.5725H125.278V49.2679H125.72V39.5725Z" fill="#FD5D76"/>
<path d="M129.908 45.5064H127.752V49.9828H129.908V45.5064Z" fill="#FD5D76"/>
<path d="M129.051 41.7889H128.609V53.7006H129.051V41.7889Z" fill="#FD5D76"/>
<path d="M33.1631 135.429L28.1971 134.84C28.4205 132.965 28.6734 130.713 28.6905 130.344V130.402H33.6916C33.6904 130.553 33.6904 131.007 33.1631 135.429Z" fill="#E98862"/>
<path d="M10.8544 136.026L5.85337 136.009C5.85337 136.009 5.87028 130.859 5.87028 130.404H10.8713C10.8716 130.86 10.8544 136.026 10.8544 136.026Z" fill="#E98862"/>
<path d="M26.315 134.789L34.8906 132.77C29.3383 111.031 24.679 88.8421 20.1664 66.8683L20.1028 66.8871L19.9168 65.6214L1.79942 64.5051C1.79942 64.5051 1.09547 73.354 1.09547 76.3106C1.09713 90.8002 3.40786 114.889 4.55572 134.166L13.3557 133.716C12.8377 115.024 11.4391 96.3047 11.5396 77.6076C16.808 96.523 22.0634 115.64 26.315 134.789Z" fill="#262626"/>
<path d="M16.9343 137.955C17.0627 137.954 17.1898 137.928 17.3082 137.879C17.4267 137.829 17.5342 137.757 17.6246 137.666C17.715 137.575 17.7866 137.467 17.8351 137.348C17.8837 137.23 17.9084 137.103 17.9078 136.975C17.9078 136.951 17.9078 136.927 17.9049 136.903C17.8905 136.718 17.8232 136.541 17.711 136.392C17.5989 136.244 17.4466 136.13 17.272 136.065L11.451 134.121C11.3382 134.083 11.2187 134.071 11.1007 134.084C10.9826 134.097 10.8688 134.136 10.767 134.197C9.96674 134.75 9.0095 135.033 8.03597 135.004C7.27775 134.951 6.54994 134.685 5.93553 134.239C5.88152 134.195 5.81602 134.167 5.74669 134.158C5.67735 134.15 5.60703 134.161 5.54392 134.191C5.48082 134.221 5.42753 134.268 5.39027 134.327C5.35301 134.386 5.33332 134.454 5.3335 134.524V137.364C5.3335 137.533 5.40069 137.695 5.52029 137.814C5.63989 137.933 5.80211 138 5.97125 138H5.97387L16.9343 137.955Z" fill="#C1D8ED"/>
<path d="M39.2566 137.955C39.385 137.954 39.5121 137.928 39.6306 137.879C39.749 137.829 39.8565 137.757 39.9469 137.666C40.0373 137.574 40.1089 137.467 40.1575 137.348C40.206 137.229 40.2307 137.102 40.2301 136.974C40.2301 136.95 40.2301 136.927 40.2272 136.903C40.2128 136.718 40.1455 136.54 40.0333 136.392C39.9211 136.243 39.7687 136.13 39.594 136.065L33.7733 134.12C33.6605 134.083 33.5409 134.07 33.4228 134.084C33.3047 134.097 33.1909 134.135 33.0891 134.196C32.2889 134.75 31.3317 135.033 30.3583 135.004C29.6 134.95 28.8721 134.685 28.2576 134.239C28.2036 134.194 28.1381 134.166 28.0688 134.158C27.9995 134.149 27.9291 134.161 27.866 134.191C27.8029 134.221 27.7497 134.268 27.7124 134.327C27.6752 134.386 27.6556 134.454 27.6558 134.524V137.364C27.6558 137.532 27.723 137.694 27.8426 137.813C27.9622 137.933 28.1244 138 28.2936 138H28.2962L39.2566 137.955Z" fill="#C1D8ED"/>
<path d="M40.2227 57.5555H26.0569C25.6375 57.5555 25.2249 57.4503 24.857 57.2496C24.4891 57.0489 24.1777 56.7591 23.9515 56.4069L15.0015 42.4727L19.2133 39.7831L27.4255 52.5688H40.2227V57.5555Z" fill="#367CFF"/>
<path d="M21.0947 66.0556C20.0968 68.3428 0.490341 69.2929 0.228381 65.2694C0.0616792 62.709 2.32406 60.4741 2.32406 55.484C2.32406 50.4939 -2.27929 44.1214 1.4715 40.3806C2.55982 39.2952 4.43879 38.5946 6.72974 38.5922C6.90121 39.9246 15.0124 39.9294 15.0744 38.6231C15.3839 38.6278 15.6245 38.6326 15.7745 38.6397C23.6762 38.9793 20.204 47.9477 20.1278 54.5363C20.0356 62.2459 22.1237 63.7004 21.0947 66.0556Z" fill="#367CFF"/>
<path d="M15.0746 38.6231C15.0127 39.9294 14.3006 41.8508 12.1025 41.9957C9.17335 42.1881 6.90145 39.9246 6.72998 38.5922H6.73712C9.62106 38.5922 13.3938 38.5969 15.0746 38.6231Z" fill="#E98862"/>
<path d="M61.219 52.7174L53.3445 38.4202C53.3022 38.3305 53.2413 38.2507 53.1659 38.1861C53.0904 38.1215 53.0021 38.0736 52.9067 38.0455C52.8114 38.0174 52.7111 38.0098 52.6126 38.0231C52.514 38.0365 52.4194 38.0704 52.335 38.1229L35.3508 47.4221L18.35 56.6889C18.2603 56.7316 18.1806 56.7928 18.1163 56.8684C18.0519 56.9441 18.0044 57.0325 17.9768 57.1277C17.9492 57.223 17.9421 57.3231 17.956 57.4213C17.9699 57.5195 18.0046 57.6137 18.0576 57.6976L25.8983 72.0133L27.07 74.1509C27.1126 74.2407 27.1738 74.3204 27.2495 74.385C27.3253 74.4495 27.4138 74.4973 27.5094 74.5254C27.6049 74.5534 27.7053 74.561 27.804 74.5476C27.9027 74.5342 27.9975 74.5002 28.0821 74.4478L31.0675 72.8211L41.0593 67.3752L41.0648 67.3809L45.0995 65.172L49.1382 62.9701L49.1363 62.9625L59.1172 57.4976L62.0992 55.8645C62.1893 55.8217 62.2693 55.7603 62.334 55.6845C62.3986 55.6086 62.4464 55.52 62.4743 55.4244C62.5021 55.3288 62.5094 55.2284 62.4956 55.1299C62.4817 55.0313 62.4471 54.9367 62.3941 54.8524L61.219 52.7174Z" fill="#8DDBE0"/>
<path opacity="0.47" d="M53.5351 43.3847C52.8441 43.7602 52.0323 43.848 51.2766 43.629C50.521 43.41 49.8828 42.902 49.5011 42.2157L36.4236 49.3738L23.3347 56.5093C23.7091 57.1996 23.7948 58.0096 23.5729 58.7627C23.3511 59.5158 22.8397 60.1508 22.1504 60.5294L26.8911 69.1831C27.1865 69.0212 27.5079 68.9118 27.8408 68.8596C28.2373 68.7967 28.6424 68.8137 29.0322 68.9097C29.4219 69.0057 29.7884 69.1787 30.1099 69.4185C30.4482 69.67 30.7271 69.9923 30.927 70.3628L39.4526 65.715L39.4583 65.7209L44.0273 63.2204L48.5997 60.7266L48.5981 60.7182L57.1158 56.0552C56.9108 55.6875 56.7889 55.2795 56.7586 54.8598C56.729 54.4603 56.7801 54.059 56.9088 53.6795C57.0376 53.3001 57.2414 52.9503 57.5083 52.6509C57.732 52.3992 57.998 52.188 58.2942 52.027L53.5351 43.3847Z" fill="white"/>
<path d="M29.8508 63.7622C30.8768 63.7622 31.7086 62.9326 31.7086 61.9093C31.7086 60.8861 30.8768 60.0565 29.8508 60.0565C28.8248 60.0565 27.993 60.8861 27.993 61.9093C27.993 62.9326 28.8248 63.7622 29.8508 63.7622Z" fill="#8DDBE0"/>
<path d="M50.5544 52.4521C51.5804 52.4521 52.4122 51.6226 52.4122 50.5993C52.4122 49.576 51.5804 48.7465 50.5544 48.7465C49.5284 48.7465 48.6967 49.576 48.6967 50.5993C48.6967 51.6226 49.5284 52.4521 50.5544 52.4521Z" fill="#8DDBE0"/>
<path d="M40.4468 49.8994C41.4919 49.9205 42.5146 50.2047 43.42 50.7257C44.3254 51.2467 45.0841 51.9874 45.6255 52.8792C46.1425 53.7629 46.6922 54.8218 46.5781 56.8596C46.4992 57.8826 46.1557 58.8677 45.581 59.7188C45.3458 60.0889 45.0696 60.4315 44.7577 60.7401C44.3229 61.1821 43.8247 61.5573 43.2793 61.8533C42.294 62.3916 41.1837 62.6608 40.0605 62.6338C38.9374 62.6068 37.8413 62.2844 36.8832 61.6994C35.9353 61.1297 35.1553 60.32 34.6225 59.3525C34.6144 59.343 34.6118 59.3321 34.6039 59.3228C33.7931 57.8385 33.6055 56.094 34.0821 54.4719C34.5587 52.8498 35.6608 51.4823 37.1466 50.6691C37.2488 50.6162 37.3509 50.5632 37.4543 50.5157C38.3845 50.0642 39.4134 49.8524 40.4468 49.8994Z" fill="#8DDBE0"/>
<path d="M41.7673 59.9081L41.3163 59.0853C41.0361 59.1953 40.7422 59.2672 40.4428 59.2991C40.1354 59.3389 39.8233 59.3228 39.5216 59.2516L39.6031 58.1493C39.8655 58.1932 40.1324 58.2039 40.3975 58.1811C40.6243 58.1594 40.8443 58.0921 41.0443 57.9833C41.233 57.9001 41.3858 57.7524 41.4751 57.5669C41.5016 57.4809 41.5087 57.3901 41.496 57.301C41.4833 57.212 41.4511 57.1268 41.4016 57.0515C41.3651 56.9826 41.3141 56.9224 41.252 56.8751C41.19 56.8277 41.1184 56.7943 41.0422 56.7772C40.8587 56.7343 40.6708 56.7129 40.4823 56.7136C40.2705 56.7117 40.0463 56.7164 39.8098 56.7278C39.575 56.7393 39.3397 56.7261 39.1077 56.6884C38.8804 56.652 38.6613 56.5762 38.4602 56.4644C38.2444 56.3367 38.0696 56.1501 37.9565 55.9267C37.7427 55.5691 37.6652 55.1467 37.7384 54.7368C37.8247 54.3339 38.0506 53.9743 38.3764 53.7212L37.9118 52.8737L38.7119 52.4374L39.1675 53.2687C39.4298 53.1671 39.71 53.1197 39.9913 53.1295C40.2549 53.1419 40.5157 53.1899 40.7664 53.272L40.5347 54.2959C40.3399 54.2433 40.1386 54.2182 39.9367 54.2213C39.7515 54.2306 39.571 54.2832 39.4099 54.3748C39.2432 54.4517 39.1073 54.5823 39.0239 54.7455C38.9959 54.8264 38.9871 54.9126 38.9982 54.9974C39.0094 55.0822 39.0402 55.1632 39.0882 55.2341C39.1229 55.2984 39.1719 55.354 39.2314 55.3966C39.2909 55.4391 39.3594 55.4676 39.4316 55.4797C39.6116 55.5134 39.7949 55.5264 39.9779 55.5184C40.1843 55.5122 40.4055 55.5021 40.6416 55.488C40.8754 55.4737 41.1101 55.4856 41.3413 55.5234C41.5722 55.561 41.7941 55.641 41.9957 55.7595C42.2197 55.8998 42.4008 56.0986 42.5196 56.3342C42.7293 56.694 42.8121 57.1134 42.7547 57.5256C42.6767 57.9566 42.4433 58.3442 42.0984 58.6153L42.5675 59.4703L41.7673 59.9081Z" fill="white"/>
<path d="M56.3497 45.0998L44.9223 33.4299C44.8574 33.3548 44.7773 33.2942 44.6873 33.2521C44.5972 33.2101 44.4993 33.1875 44.3998 33.186C44.3004 33.1844 44.2018 33.2038 44.1105 33.243C44.0191 33.2822 43.9372 33.3402 43.8699 33.4133L30.0063 46.912L16.1162 60.3843C16.0412 60.4494 15.9809 60.5297 15.9393 60.6197C15.8976 60.7098 15.8755 60.8076 15.8745 60.9068C15.8735 61.006 15.8936 61.1042 15.9334 61.1951C15.9732 61.286 16.0319 61.3674 16.1055 61.4341L27.5058 73.1296L29.2085 74.8748C29.2737 74.9499 29.3541 75.0105 29.4444 75.0524C29.5347 75.0944 29.6329 75.1168 29.7325 75.1183C29.8321 75.1198 29.9309 75.1003 30.0224 75.061C30.1139 75.0217 30.1961 74.9636 30.2635 74.8905L32.7026 72.5251L40.8657 64.6082L40.8724 64.6122L44.1662 61.4058L47.4654 58.2051L47.4614 58.198L55.6088 50.2651L58.0429 47.8948C58.118 47.8294 58.1783 47.749 58.22 47.6588C58.2618 47.5685 58.2839 47.4705 58.285 47.3712C58.2861 47.2718 58.2661 47.1734 58.2264 47.0822C58.1867 46.9911 58.1282 46.9094 58.0546 46.8424L56.3497 45.0998Z" fill="#8DDBE0"/>
<path opacity="0.47" d="M46.4383 38.1623C45.8736 38.7089 45.1151 39.0107 44.3282 39.0018C43.5413 38.9929 42.7898 38.674 42.2377 38.1148L31.5628 48.5064L20.8703 58.8789C21.4166 59.4439 21.7167 60.2014 21.7053 60.9862C21.694 61.7709 21.372 62.5194 20.8096 63.0684L27.7022 70.1384C27.9435 69.9036 28.2237 69.7122 28.5305 69.5729C28.8955 69.4063 29.2904 69.3145 29.6916 69.3028C30.0928 69.2911 30.4924 69.3599 30.8665 69.5049C31.26 69.6568 31.6154 69.8928 31.9077 70.1963L38.8732 63.4392L38.8806 63.4434L42.6104 59.8131L46.3459 56.1884L46.3419 56.1811L53.2957 49.412C52.9994 49.113 52.7722 48.753 52.6301 48.3572C52.4944 47.9804 52.4358 47.5802 52.4579 47.1804C52.4801 46.7806 52.5824 46.3893 52.7589 46.0296C52.9066 45.7274 53.1056 45.4529 53.3472 45.2185L46.4383 38.1623Z" fill="white"/>
<path d="M28.5991 64.1925C29.6251 64.1925 30.4569 63.363 30.4569 62.3397C30.4569 61.3164 29.6251 60.4869 28.5991 60.4869C27.5731 60.4869 26.7413 61.3164 26.7413 62.3397C26.7413 63.363 27.5731 64.1925 28.5991 64.1925Z" fill="#8DDBE0"/>
<path d="M45.5062 47.7623C46.5322 47.7623 47.364 46.9327 47.364 45.9094C47.364 44.8861 46.5322 44.0566 45.5062 44.0566C44.4802 44.0566 43.6484 44.8861 43.6484 45.9094C43.6484 46.9327 44.4802 47.7623 45.5062 47.7623Z" fill="#8DDBE0"/>
<path d="M35.5801 47.9371C36.5926 47.678 37.6543 47.6784 38.6666 47.9383C39.6789 48.1982 40.6089 48.7092 41.3701 49.4236C42.1057 50.1362 42.92 51.0097 43.3579 53.0036C43.5567 54.0103 43.4904 55.0512 43.1652 56.0246C43.0381 56.4438 42.864 56.8474 42.6463 57.2278C42.3463 57.7699 41.9672 58.2645 41.5213 58.6954C40.7166 59.4775 39.7191 60.0337 38.6296 60.3078C37.5401 60.582 36.3973 60.5643 35.3169 60.2565C34.2506 59.9611 33.2817 59.3895 32.5085 58.5999C32.4982 58.5928 32.4928 58.583 32.4825 58.5761C31.3025 57.3628 30.653 55.7323 30.6763 54.0421C30.6996 52.3519 31.3938 50.7398 32.6068 49.5593C32.6911 49.4809 32.7752 49.4027 32.8621 49.3291C33.6374 48.6461 34.5718 48.1675 35.5801 47.9371Z" fill="#8DDBE0"/>
<path d="M39.5419 57.2266L38.8863 56.5544C38.6462 56.7355 38.3829 56.8835 38.1032 56.9945C37.8177 57.1147 37.5127 57.1824 37.203 57.1943L36.9854 56.1105C37.2499 56.0827 37.5099 56.0217 37.7591 55.9288C37.9718 55.8472 38.1657 55.7236 38.3292 55.5654C38.4887 55.4348 38.5961 55.2517 38.6322 55.0491C38.6345 54.9591 38.617 54.8698 38.5808 54.7874C38.5446 54.7049 38.4907 54.6315 38.4228 54.5722C38.3692 54.5156 38.3038 54.4712 38.2314 54.4421C38.1589 54.4131 38.081 54.4 38.003 54.4038C37.8146 54.4117 37.6279 54.4414 37.4464 54.4924C37.2419 54.547 37.0272 54.6114 36.8022 54.6857C36.5793 54.7596 36.349 54.8098 36.1154 54.8353C35.8866 54.8612 35.6551 54.8468 35.4312 54.7928C35.189 54.7274 34.9706 54.5944 34.8016 54.4095C34.4996 54.1221 34.3115 53.7358 34.2717 53.3214C34.2465 52.9102 34.3675 52.5033 34.6135 52.1724L33.9381 51.48L34.5918 50.8459L35.2538 51.5247C35.4792 51.3566 35.7366 51.2361 36.0102 51.1705C36.2678 51.1122 36.5322 51.089 36.7961 51.1017L36.848 52.15C36.6464 52.1515 36.446 52.1811 36.2526 52.2379C36.0767 52.2963 35.917 52.3952 35.7866 52.5267C35.6466 52.6453 35.5507 52.8075 35.5144 52.987C35.5089 53.0724 35.5236 53.1579 35.5571 53.2366C35.5906 53.3154 35.6421 53.3852 35.7075 53.4407C35.7582 53.4933 35.8203 53.5337 35.8891 53.5587C35.9578 53.5838 36.0314 53.5929 36.1042 53.5853C36.2868 53.5697 36.4669 53.5332 36.641 53.4765C36.8392 53.4153 37.0495 53.3464 37.2721 53.2699C37.4936 53.1936 37.7229 53.1423 37.9558 53.1169C38.1884 53.0915 38.4237 53.1093 38.6498 53.1694C38.9032 53.2448 39.1312 53.3879 39.309 53.5832C39.6079 53.8737 39.8007 54.2556 39.8567 54.6681C39.8973 55.1042 39.7765 55.54 39.5171 55.8934L40.1989 56.5924L39.5419 57.2266Z" fill="white"/>
<path d="M21.58 58.3301C21.58 58.3301 22.1535 55.2058 24.3696 55.7495C25.7678 56.0927 29.8313 55.4802 29.8929 57.271C29.9465 58.8248 26.1302 59.2388 24.8681 59.1093C23.7352 58.9932 21.58 58.3301 21.58 58.3301Z" fill="#E98862"/>
<path d="M23.558 55.7151C23.558 55.7151 26.8547 55.2301 27.591 55.5421C28.2431 55.8186 26.6385 56.6822 26.6385 56.6822L23.558 55.7151Z" fill="#E98862"/>
<path d="M24.6125 60.0648L9.87612 59.6169C9.41611 59.603 8.96808 59.4673 8.57794 59.2238C8.1878 58.9803 7.86958 58.6378 7.65589 58.2313L0.381035 44.3951L4.97986 41.9898L11.55 54.4864L24.7707 54.8885L24.6125 60.0648Z" fill="#367CFF"/>
<path d="M8.95426 35.4905V35.4383C8.95426 35.0203 8.9352 34.5666 8.89472 34.075L9.3472 33.9919L12.7003 33.3719C12.6344 34.2153 12.6471 35.0629 12.7384 35.9038C12.7503 35.9988 12.7622 36.0962 12.7765 36.1936C12.7908 36.291 12.8051 36.3955 12.8241 36.4976C12.8265 36.519 12.8313 36.5427 12.836 36.5665C12.8694 36.7517 12.9075 36.9346 12.9551 37.1151C12.9624 37.1521 12.9719 37.1886 12.9837 37.2244C12.9841 37.2309 12.9857 37.2374 12.9884 37.2434C13.0075 37.3218 13.0313 37.4025 13.0575 37.4785C13.0837 37.5664 13.1123 37.6519 13.1456 37.7374C13.1551 37.7635 13.1647 37.792 13.1766 37.8182C13.2075 37.9037 13.2433 37.9868 13.2814 38.0675C13.3218 38.1602 13.3671 38.2504 13.4147 38.3383C13.4153 38.3383 13.416 38.3386 13.4164 38.339C13.4168 38.3394 13.4171 38.34 13.4171 38.3407C13.5966 38.6914 13.8491 38.9999 14.1577 39.2456H8.17338C8.55679 38.5853 8.95211 37.4358 8.95426 35.4905Z" fill="#E98862"/>
<path opacity="0.15" d="M13.4178 38.3418L10.2571 35.9302L12.7408 35.9045C12.8124 36.7519 13.042 37.5785 13.4178 38.3418Z" fill="black"/>
<path d="M6.73665 32.1352C7.00004 33.6524 7.83021 35.0894 9.1724 35.5791C10.7654 36.161 11.9454 36.2005 13.7822 36.2005C16.2887 36.2005 16.2058 33.5933 16.2763 30.966C16.3477 28.3284 16.1367 25.4989 15.146 24.5798C13.1694 22.7452 7.36511 23.9069 6.65901 26.9755C6.29394 28.5638 6.48588 30.6919 6.73665 32.1352Z" fill="#E98862"/>
<path d="M18.0138 23.4884C18.0138 22.2339 16.4485 20.1782 12.2719 23.0134L12.2678 23.0162C11.1828 22.9859 10.0988 23.1041 9.04595 23.3675C7.13602 23.9375 4.74099 25.5343 5.35469 29.4062C6.04055 33.7289 7.81545 34.8811 8.70992 35.4112C8.93783 35.5461 8.99308 35.4364 9.07214 35.1839C9.3202 34.2509 9.49764 33.3007 9.60297 32.3411C9.75909 31.4073 9.82995 30.4613 9.81468 29.5148C9.81468 29.0953 9.81682 27.5672 11.9037 27.5498C13.0773 27.5401 12.6386 27.5867 13.8913 27.5867C14.0696 27.5867 14.2275 27.5786 14.3728 27.5657H14.3742C18.6996 27.5655 18.0138 24.7432 18.0138 23.4884Z" fill="#0F1011"/>
<path d="M12.6948 30.9674C12.8854 30.9674 13.0399 30.8133 13.0399 30.6232C13.0399 30.4332 12.8854 30.2791 12.6948 30.2791C12.5042 30.2791 12.3497 30.4332 12.3497 30.6232C12.3497 30.8133 12.5042 30.9674 12.6948 30.9674Z" fill="#0F1011"/>
<path d="M15.417 30.7446C15.6076 30.7446 15.7621 30.5905 15.7621 30.4004C15.7621 30.2104 15.6076 30.0563 15.417 30.0563C15.2265 30.0563 15.072 30.2104 15.072 30.4004C15.072 30.5905 15.2265 30.7446 15.417 30.7446Z" fill="#0F1011"/>
<path d="M16.015 29.6673H16.0129L15.0989 29.6559C15.0776 29.6556 15.0566 29.6511 15.037 29.6427C15.0174 29.6343 14.9997 29.6222 14.9848 29.607C14.97 29.5918 14.9583 29.5738 14.9504 29.554C14.9425 29.5343 14.9386 29.5132 14.9388 29.492C14.9378 29.4704 14.9414 29.4488 14.9493 29.4287C14.9573 29.4086 14.9694 29.3904 14.9849 29.3753C15.0004 29.3603 15.0189 29.3486 15.0393 29.3412C15.0596 29.3338 15.0813 29.3308 15.1029 29.3324L16.0172 29.3438C16.0602 29.344 16.1013 29.3614 16.1315 29.3919C16.1617 29.4224 16.1786 29.4637 16.1783 29.5066C16.178 29.5495 16.1606 29.5905 16.13 29.6206C16.0994 29.6508 16.058 29.6675 16.015 29.6673Z" fill="#0F1011"/>
<path d="M11.9499 29.9995C11.9102 29.9994 11.872 29.9848 11.8424 29.9585C11.8128 29.9322 11.7939 29.896 11.7892 29.8567C11.7846 29.8174 11.7946 29.7778 11.8172 29.7453C11.8399 29.7129 11.8737 29.6898 11.9123 29.6806L12.8134 29.4642C12.8343 29.4587 12.8561 29.4574 12.8775 29.4604C12.8989 29.4634 12.9194 29.4707 12.938 29.4817C12.9565 29.4927 12.9727 29.5074 12.9855 29.5247C12.9983 29.5421 13.0075 29.5618 13.0125 29.5828C13.0176 29.6037 13.0184 29.6255 13.0149 29.6467C13.0114 29.668 13.0036 29.6884 12.9921 29.7066C12.9807 29.7249 12.9656 29.7406 12.9479 29.753C12.9302 29.7654 12.9103 29.7741 12.8891 29.7786L11.988 29.995C11.9755 29.998 11.9627 29.9995 11.9499 29.9995Z" fill="#0F1011"/>
<path d="M10.8997 31.4652C10.9182 31.6577 10.8982 31.8519 10.8408 32.0365C10.7834 32.2212 10.6897 32.3927 10.5653 32.5409C10.4409 32.6892 10.2882 32.8113 10.116 32.9002C9.94388 32.9891 9.75573 33.043 9.56251 33.0587C9.3693 33.0745 9.17488 33.0518 8.99054 32.9919C8.80621 32.932 8.63564 32.8362 8.48875 32.7101C8.34186 32.5839 8.22158 32.4299 8.1349 32.2569C8.04822 32.084 7.99686 31.8956 7.98382 31.7027C7.96478 31.5111 7.9846 31.3177 8.04209 31.1339C8.09958 30.9501 8.19356 30.7798 8.31844 30.633C8.44332 30.4862 8.59655 30.3659 8.76899 30.2794C8.94143 30.1929 9.12957 30.1419 9.32219 30.1294C10.3648 30.0964 10.8337 30.6627 10.8997 31.4652Z" fill="#E98862"/>
<g opacity="0.15">
<path opacity="0.15" d="M14.2266 32.5321C14.198 32.5321 14.1704 32.5219 14.1488 32.5034C14.1272 32.4848 14.113 32.4591 14.1087 32.431C14.1045 32.4029 14.1105 32.3741 14.1257 32.3501C14.1409 32.326 14.1643 32.3082 14.1915 32.2998L14.8934 32.0849L14.4025 30.9952C14.3959 30.9809 14.3922 30.9655 14.3915 30.9498C14.3909 30.9341 14.3934 30.9184 14.399 30.9037C14.4045 30.8889 14.4128 30.8754 14.4236 30.864C14.4344 30.8525 14.4473 30.8433 14.4617 30.8368C14.4761 30.8304 14.4916 30.8268 14.5074 30.8264C14.5231 30.826 14.5388 30.8287 14.5535 30.8344C14.5682 30.84 14.5816 30.8486 14.593 30.8595C14.6044 30.8703 14.6135 30.8834 14.6197 30.8978L15.1658 32.1108C15.1727 32.1261 15.1763 32.1428 15.1763 32.1596C15.1763 32.1764 15.1727 32.1931 15.1657 32.2084C15.1587 32.2238 15.1486 32.2375 15.1359 32.2486C15.1232 32.2597 15.1084 32.268 15.0922 32.273L14.2616 32.5276C14.2502 32.5308 14.2384 32.5323 14.2266 32.5321Z" fill="black"/>
</g>
<path d="M12.8544 33.3335C12.8544 33.3335 14.1282 33.4674 15.0215 33.1563C15.0215 33.1563 15.0143 33.993 14.0065 34.0754C12.9987 34.1579 12.8544 33.3335 12.8544 33.3335Z" fill="#F8FCFF"/>
</g>
<defs>
<clipPath id="clip0_5_290">
<rect width="169" height="138" fill="white"/>
</clipPath>
</defs>
</svg>
