<svg width="532" height="388" viewBox="0 0 532 388" fill="none" xmlns="http://www.w3.org/2000/svg">
<g clip-path="url(#clip0_5_2)">
<path d="M441.067 7.284H85.4859C69.9187 7.284 57.2989 19.9144 57.2989 35.4949V306.336C57.2989 321.916 69.9187 334.546 85.4859 334.546H441.067C456.634 334.546 469.254 321.916 469.254 306.336V35.4949C469.254 19.9144 456.634 7.284 441.067 7.284Z" fill="#C1D8ED"/>
<path d="M441.067 0H85.4859C69.9187 0 57.2989 12.6305 57.2989 28.2109V299.052C57.2989 314.632 69.9187 327.262 85.4859 327.262H441.067C456.634 327.262 469.254 314.632 469.254 299.052V28.2109C469.254 12.6305 456.634 0 441.067 0Z" fill="#DEE8F5"/>
<path d="M310.388 274.853H216.164V381.602H310.388V274.853Z" fill="#DEE8F5"/>
<path d="M350.374 361.773H185.936C178.701 361.773 172.836 367.644 172.836 374.885V374.888C172.836 382.13 178.701 388 185.936 388H350.374C357.61 388 363.475 382.13 363.475 374.888V374.885C363.475 367.644 357.61 361.773 350.374 361.773Z" fill="#DEE8F5"/>
<path d="M445.569 24.877H78.4708V280.68H445.569V24.877Z" fill="white"/>
<path d="M445.569 24.877H78.4708V42.1357H445.569V24.877Z" fill="#C1D8ED"/>
<path d="M436.093 38.2402C438.706 38.2402 440.824 36.1205 440.824 33.5056C440.824 30.8908 438.706 28.771 436.093 28.771C433.48 28.771 431.362 30.8908 431.362 33.5056C431.362 36.1205 433.48 38.2402 436.093 38.2402Z" fill="white"/>
<path d="M326.933 127.534H199.386V212.375H326.933V127.534Z" fill="#DEE8F5"/>
<path opacity="0.55" d="M328.359 126.172H196.603V147.733H328.359V126.172Z" fill="#C1D8ED"/>
<path d="M350.743 218.326H175.574V227.123H350.743V218.326Z" fill="#F3F5FD"/>
<path d="M344.599 209.529H181.72V218.326H344.599V209.529Z" fill="#F3F5FD"/>
<path d="M344.599 215.973H181.72V218.326H344.599V215.973Z" fill="#DEE8F5"/>
<path d="M350.743 224.77H175.574V227.124H350.743V224.77Z" fill="#DEE8F5"/>
<path d="M356.619 227.124H169.933V235.921H356.619V227.124Z" fill="#F3F5FD"/>
<path d="M356.619 233.567H169.933V235.921H356.619V233.567Z" fill="#DEE8F5"/>
<path d="M208.217 134.146H194.122V205.57H208.217V134.146Z" fill="#F3F5FD"/>
<path d="M243.775 134.146H229.679V205.57H243.775V134.146Z" fill="#F3F5FD"/>
<path d="M332.196 134.146H318.101V205.57H332.196V134.146Z" fill="#F3F5FD"/>
<path d="M189.878 127.534H212.463V135.639C212.463 135.773 212.436 135.907 212.385 136.031C212.333 136.155 212.258 136.268 212.163 136.363C212.068 136.458 211.955 136.534 211.831 136.585C211.707 136.637 211.574 136.663 211.439 136.663H190.897C190.763 136.663 190.63 136.637 190.505 136.585C190.381 136.534 190.268 136.458 190.173 136.363C190.078 136.268 190.003 136.155 189.952 136.031C189.9 135.907 189.874 135.773 189.874 135.639V127.534H189.878Z" fill="#C1D8ED"/>
<path d="M225.435 127.534H248.019V135.639C248.019 135.773 247.993 135.907 247.941 136.031C247.89 136.155 247.814 136.268 247.719 136.363C247.624 136.458 247.512 136.534 247.387 136.585C247.263 136.637 247.13 136.663 246.996 136.663H226.458C226.323 136.663 226.19 136.637 226.066 136.585C225.942 136.534 225.829 136.458 225.734 136.363C225.639 136.268 225.564 136.155 225.512 136.031C225.461 135.907 225.435 135.773 225.435 135.639V127.534Z" fill="#C1D8ED"/>
<path d="M313.856 127.534H336.441V135.639C336.441 135.773 336.414 135.907 336.363 136.031C336.312 136.155 336.236 136.268 336.141 136.363C336.046 136.458 335.933 136.534 335.809 136.585C335.685 136.637 335.552 136.663 335.418 136.663H314.88C314.745 136.663 314.612 136.637 314.488 136.585C314.364 136.534 314.251 136.458 314.156 136.363C314.061 136.268 313.986 136.155 313.934 136.031C313.883 135.907 313.856 135.773 313.856 135.639V127.534Z" fill="#C1D8ED"/>
<path d="M190.897 203.126H211.435C211.569 203.126 211.702 203.152 211.827 203.204C211.951 203.255 212.063 203.331 212.159 203.426C212.254 203.521 212.329 203.634 212.38 203.758C212.432 203.882 212.458 204.015 212.458 204.15V209.529H189.878V204.15C189.878 203.879 189.985 203.619 190.176 203.427C190.367 203.235 190.626 203.127 190.897 203.126Z" fill="#C1D8ED"/>
<path d="M226.458 203.126H246.996C247.13 203.126 247.263 203.152 247.387 203.204C247.512 203.255 247.624 203.331 247.719 203.426C247.814 203.521 247.89 203.634 247.941 203.758C247.993 203.882 248.019 204.015 248.019 204.15V209.529H225.435V204.15C225.435 204.015 225.461 203.882 225.512 203.758C225.564 203.634 225.639 203.521 225.734 203.426C225.829 203.331 225.942 203.255 226.066 203.204C226.19 203.152 226.323 203.126 226.458 203.126Z" fill="#C1D8ED"/>
<path d="M314.88 203.126H335.418C335.552 203.126 335.685 203.152 335.809 203.204C335.933 203.255 336.046 203.331 336.141 203.426C336.236 203.521 336.312 203.634 336.363 203.758C336.414 203.882 336.441 204.015 336.441 204.15V209.529H313.856V204.15C313.856 204.015 313.883 203.882 313.934 203.758C313.986 203.634 314.061 203.521 314.156 203.426C314.251 203.331 314.364 203.255 314.488 203.204C314.612 203.152 314.745 203.126 314.88 203.126Z" fill="#C1D8ED"/>
<path d="M199.379 140.582C199.379 140.19 199.061 139.872 198.669 139.872C198.277 139.872 197.959 140.19 197.959 140.582V199.136C197.959 199.528 198.277 199.846 198.669 199.846C199.061 199.846 199.379 199.528 199.379 199.136V140.582Z" fill="#C1D8ED"/>
<path d="M204.38 140.582C204.38 140.19 204.062 139.872 203.67 139.872C203.278 139.872 202.961 140.19 202.961 140.582V199.136C202.961 199.528 203.278 199.846 203.67 199.846C204.062 199.846 204.38 199.528 204.38 199.136V140.582Z" fill="#C1D8ED"/>
<path d="M234.936 140.582C234.936 140.19 234.619 139.872 234.227 139.872C233.835 139.872 233.517 140.19 233.517 140.582V199.136C233.517 199.528 233.835 199.846 234.227 199.846C234.619 199.846 234.936 199.528 234.936 199.136V140.582Z" fill="#C1D8ED"/>
<path d="M239.937 140.582C239.937 140.19 239.619 139.872 239.227 139.872C238.836 139.872 238.518 140.19 238.518 140.582V199.136C238.518 199.528 238.836 199.846 239.227 199.846C239.619 199.846 239.937 199.528 239.937 199.136V140.582Z" fill="#C1D8ED"/>
<path d="M297.737 134.146H283.641V205.57H297.737V134.146Z" fill="#F3F5FD"/>
<path d="M279.395 127.534H301.98V135.639C301.98 135.773 301.953 135.907 301.902 136.031C301.85 136.155 301.775 136.268 301.68 136.363C301.585 136.458 301.472 136.534 301.348 136.585C301.224 136.637 301.091 136.663 300.956 136.663H280.418C280.284 136.663 280.151 136.637 280.027 136.585C279.903 136.534 279.79 136.458 279.695 136.363C279.6 136.268 279.524 136.155 279.473 136.031C279.422 135.907 279.395 135.773 279.395 135.639V127.534Z" fill="#C1D8ED"/>
<path d="M280.419 203.126H300.957C301.092 203.126 301.225 203.152 301.349 203.204C301.473 203.255 301.586 203.331 301.681 203.426C301.776 203.521 301.851 203.634 301.903 203.758C301.954 203.882 301.98 204.015 301.98 204.15V209.529H279.395V204.15C279.395 204.015 279.422 203.882 279.473 203.758C279.525 203.634 279.6 203.521 279.695 203.425C279.79 203.33 279.903 203.255 280.027 203.204C280.152 203.152 280.285 203.126 280.419 203.126Z" fill="#C1D8ED"/>
<path d="M288.898 140.582C288.898 140.19 288.58 139.872 288.188 139.872C287.796 139.872 287.479 140.19 287.479 140.582V199.136C287.479 199.528 287.796 199.846 288.188 199.846C288.58 199.846 288.898 199.528 288.898 199.136V140.582Z" fill="#C1D8ED"/>
<path d="M293.898 140.582C293.898 140.19 293.581 139.872 293.189 139.872C292.797 139.872 292.479 140.19 292.479 140.582V199.136C292.479 199.528 292.797 199.846 293.189 199.846C293.581 199.846 293.898 199.528 293.898 199.136V140.582Z" fill="#C1D8ED"/>
<path d="M323.358 140.582C323.358 140.19 323.041 139.872 322.649 139.872C322.257 139.872 321.939 140.19 321.939 140.582V199.136C321.939 199.528 322.257 199.846 322.649 199.846C323.041 199.846 323.358 199.528 323.358 199.136V140.582Z" fill="#C1D8ED"/>
<path d="M328.359 140.582C328.359 140.19 328.041 139.872 327.649 139.872C327.257 139.872 326.94 140.19 326.94 140.582V199.136C326.94 199.528 327.257 199.846 327.649 199.846C328.041 199.846 328.359 199.528 328.359 199.136V140.582Z" fill="#C1D8ED"/>
<path d="M342.603 124.354V129.549C342.603 129.687 342.575 129.824 342.522 129.952C342.469 130.08 342.391 130.196 342.293 130.294C342.195 130.392 342.079 130.47 341.951 130.522C341.823 130.575 341.686 130.602 341.548 130.602H184.441C184.162 130.602 183.894 130.491 183.696 130.293C183.499 130.096 183.388 129.828 183.388 129.548V124.576C183.388 124.331 183.447 124.09 183.561 123.873C183.676 123.656 183.841 123.471 184.043 123.333L262.312 70.0203C262.562 69.8505 262.856 69.7598 263.158 69.7598C263.46 69.7598 263.755 69.8505 264.004 70.0203L341.945 123.11C342.148 123.248 342.314 123.433 342.428 123.65C342.543 123.867 342.603 124.108 342.603 124.354Z" fill="#DEE8F5"/>
<path d="M321.626 121.835H204.692C204.605 121.835 204.521 121.807 204.451 121.756C204.382 121.705 204.33 121.632 204.305 121.549C204.279 121.466 204.281 121.378 204.31 121.296C204.338 121.214 204.393 121.144 204.464 121.095L262.931 81.2697C262.998 81.2238 263.077 81.1992 263.158 81.1992C263.239 81.1992 263.318 81.2238 263.385 81.2697L321.854 121.095C321.926 121.144 321.98 121.214 322.008 121.296C322.037 121.378 322.039 121.466 322.013 121.549C321.988 121.632 321.936 121.705 321.867 121.756C321.797 121.807 321.713 121.835 321.626 121.835Z" fill="#F3F5FD"/>
<path d="M405.37 287.219C405.37 287.219 389.329 275.317 383.623 279.997C378.456 284.234 384.439 301.143 384.439 301.143C384.439 301.143 398.228 302.388 405.37 287.219Z" fill="#DEE8F5"/>
<path d="M511.159 325.975C511.159 355.969 486.509 380.283 447.738 380.283C408.968 380.283 377.539 355.969 377.539 325.975C377.539 295.981 408.968 271.667 447.738 271.667C486.509 271.667 511.159 295.981 511.159 325.975Z" fill="#C1D8ED"/>
<path d="M418.241 357.144H413.719C413.338 357.199 412.95 357.199 412.569 357.144H408.046C407.465 357.144 406.89 357.258 406.353 357.481C405.817 357.703 405.329 358.029 404.918 358.44C404.507 358.852 404.181 359.34 403.959 359.877C403.737 360.414 403.622 360.99 403.622 361.572V383.788C403.622 384.904 404.066 385.975 404.854 386.765C405.643 387.554 406.713 387.998 407.829 387.998H412.787C412.907 387.998 413.026 387.99 413.144 387.98C413.262 387.99 413.38 387.998 413.501 387.998H418.459C419.575 387.998 420.644 387.554 421.433 386.765C422.222 385.975 422.665 384.904 422.665 383.788V361.572C422.665 360.397 422.199 359.271 421.37 358.44C420.54 357.61 419.415 357.144 418.241 357.144Z" fill="#C1D8ED"/>
<path d="M478.258 357.144H473.736C473.355 357.199 472.967 357.199 472.586 357.144H468.064C467.483 357.144 466.907 357.258 466.371 357.481C465.834 357.703 465.346 358.029 464.935 358.44C464.524 358.852 464.199 359.34 463.976 359.877C463.754 360.414 463.64 360.99 463.64 361.572V383.788C463.64 384.904 464.083 385.975 464.872 386.765C465.661 387.554 466.73 387.998 467.846 387.998H472.804C472.925 387.998 473.043 387.99 473.161 387.98C473.279 387.99 473.398 387.998 473.518 387.998H478.476C479.028 387.998 479.575 387.889 480.086 387.677C480.596 387.466 481.06 387.156 481.45 386.765C481.841 386.374 482.151 385.91 482.362 385.399C482.573 384.888 482.682 384.341 482.682 383.788V361.572C482.682 360.397 482.216 359.271 481.386 358.441C480.557 357.61 479.432 357.144 478.258 357.144Z" fill="#C1D8ED"/>
<path d="M390.449 308.277C391.716 308.277 392.742 307.249 392.742 305.982C392.742 304.715 391.716 303.688 390.449 303.688C389.183 303.688 388.157 304.715 388.157 305.982C388.157 307.249 389.183 308.277 390.449 308.277Z" fill="#111314"/>
<path d="M517.985 335.188C517.449 335.187 516.915 335.138 516.388 335.042C514.942 334.782 513.574 334.196 512.388 333.329C511.202 332.462 510.228 331.336 509.541 330.037C508.878 328.723 508.53 327.272 508.527 325.8C508.523 324.329 508.863 322.876 509.52 321.559C510.232 319.953 511.284 318.521 512.603 317.361C509.369 316.625 506.05 316.338 502.738 316.508C502.051 316.559 501.371 316.335 500.849 315.885C500.327 315.435 500.005 314.796 499.953 314.108C499.902 313.42 500.126 312.74 500.575 312.217C501.025 311.695 501.664 311.372 502.351 311.321C502.822 311.286 512.725 310.599 519.751 314.622C525.152 314.297 530.304 316.84 530.566 316.972C531.182 317.281 531.65 317.823 531.868 318.477C532.085 319.132 532.033 319.846 531.724 320.462C531.416 321.079 530.875 321.548 530.221 321.765C529.567 321.982 528.853 321.931 528.237 321.622C527.343 321.196 526.416 320.843 525.466 320.565C526.203 322.145 526.624 323.855 526.703 325.598C526.824 326.974 526.627 328.36 526.126 329.648C525.625 330.935 524.834 332.09 523.815 333.022C522.199 334.428 520.127 335.198 517.985 335.188ZM518.518 320.043C518.299 320.096 518.081 320.16 517.875 320.233C517.057 320.53 516.31 320.995 515.683 321.599C515.057 322.203 514.564 322.932 514.236 323.739C513.912 324.335 513.735 324.999 513.72 325.677C513.704 326.354 513.85 327.026 514.146 327.636C514.472 328.227 514.924 328.739 515.47 329.135C516.016 329.53 516.642 329.801 517.305 329.926C517.842 330.03 518.396 330.012 518.926 329.874C519.456 329.735 519.948 329.479 520.366 329.125C520.793 328.71 521.119 328.201 521.317 327.639C521.515 327.077 521.581 326.476 521.508 325.884C521.482 324.83 521.235 323.792 520.784 322.839C520.332 321.885 519.687 321.037 518.888 320.348C518.77 320.247 518.645 320.144 518.518 320.043Z" fill="#C1D8ED"/>
<path d="M511.878 325.252C511.442 325.251 511.014 325.141 510.632 324.932C510.25 324.722 509.926 324.419 509.692 324.052C509.457 323.685 509.318 323.264 509.288 322.829C509.258 322.394 509.337 321.958 509.52 321.562C510.134 320.116 511.043 318.815 512.188 317.74C513.333 316.665 514.689 315.841 516.17 315.32C522.629 313.055 530.245 316.814 530.566 316.975C531.182 317.284 531.65 317.826 531.868 318.48C532.085 319.135 532.033 319.849 531.724 320.465C531.416 321.082 530.875 321.55 530.221 321.768C529.567 321.985 528.853 321.934 528.237 321.625C526.587 320.805 521.5 318.954 517.876 320.233C517.058 320.53 516.311 320.995 515.684 321.599C515.057 322.203 514.564 322.932 514.237 323.739C514.029 324.191 513.697 324.573 513.279 324.841C512.861 325.109 512.375 325.252 511.878 325.252Z" fill="#DEE8F5"/>
<path d="M401.954 292.877C401.382 292.326 401.023 291.59 400.94 290.8C400.857 290.01 401.055 289.216 401.5 288.558C404.552 284.069 411.543 274.856 416.356 276.741C420.762 278.466 421.818 289.511 422.072 294.489C422.129 295.197 421.944 295.904 421.547 296.493C421.151 297.082 420.566 297.519 419.888 297.731C416.359 298.692 409.179 299.421 401.954 292.877Z" fill="#DEE8F5"/>
<path d="M364.908 316.888L416.484 317.34V351.417L369.427 351.209" fill="#C1D8ED"/>
<path d="M369.856 351.241C374.101 350.597 376.377 342.378 374.939 332.884C373.501 323.39 368.895 316.216 364.65 316.859C360.405 317.503 358.129 325.722 359.566 335.216C361.004 344.71 365.611 351.884 369.856 351.241Z" fill="#DEE8F5"/>
<path d="M464.664 276.253H430.143C428.761 276.253 427.641 277.374 427.641 278.757V278.758C427.641 280.141 428.761 281.262 430.143 281.262H464.664C466.046 281.262 467.166 280.141 467.166 278.758V278.757C467.166 277.374 466.046 276.253 464.664 276.253Z" fill="#E9EFF4"/>
<path d="M466.953 279.772C466.756 280.215 466.435 280.592 466.029 280.856C465.623 281.121 465.149 281.261 464.664 281.262H430.142C429.657 281.262 429.183 281.121 428.777 280.856C428.371 280.591 428.05 280.213 427.855 279.769C427.978 279.485 428.155 279.227 428.375 279.01C428.606 278.776 428.881 278.59 429.185 278.464C429.488 278.338 429.813 278.274 430.142 278.275H464.664C465.15 278.275 465.625 278.416 466.031 278.682C466.438 278.948 466.758 279.326 466.953 279.772Z" fill="#0F1011"/>
<path d="M453.294 234.255C464.401 234.255 473.404 225.243 473.404 214.127C473.404 203.012 464.401 194 453.294 194C442.188 194 433.184 203.012 433.184 214.127C433.184 225.243 442.188 234.255 453.294 234.255Z" fill="#0CBC8B"/>
<g opacity="0.29">
<path opacity="0.29" d="M453.294 227.175C460.494 227.175 466.331 221.334 466.331 214.127C466.331 206.921 460.494 201.08 453.294 201.08C446.094 201.08 440.257 206.921 440.257 214.127C440.257 221.334 446.094 227.175 453.294 227.175Z" fill="white"/>
</g>
<path d="M449.026 218.788L450.243 216.901C450.992 217.568 451.945 217.962 452.946 218.016C454.021 218.016 454.494 217.571 454.494 216.705C454.494 214.752 449.489 214.787 449.489 211.363C449.489 209.161 451.013 207.759 453.415 207.759C454.097 207.749 454.774 207.888 455.397 208.166C456.021 208.444 456.576 208.855 457.025 209.37L455.63 210.968C455.367 210.679 455.049 210.445 454.694 210.281C454.34 210.116 453.956 210.024 453.565 210.011C452.652 210.011 452.157 210.375 452.157 211.231C452.157 213.041 457.163 212.883 457.163 216.511C457.163 218.69 455.722 220.266 452.946 220.266C451.51 220.234 450.127 219.713 449.026 218.788ZM452.362 205.901H454.212V208.634H452.362V205.901ZM452.362 219.129H454.212V222.128H452.362V219.129Z" fill="white"/>
<path d="M466.241 181.178C475.469 181.178 482.95 173.691 482.95 164.456C482.95 155.22 475.469 147.733 466.241 147.733C457.014 147.733 449.533 155.22 449.533 164.456C449.533 173.691 457.014 181.178 466.241 181.178Z" fill="#0CBC8B"/>
<g opacity="0.29">
<path opacity="0.29" d="M466.241 175.297C472.223 175.297 477.073 170.443 477.073 164.456C477.073 158.469 472.223 153.615 466.241 153.615C460.259 153.615 455.41 158.469 455.41 164.456C455.41 170.443 460.259 175.297 466.241 175.297Z" fill="white"/>
</g>
<path d="M462.696 168.328L463.706 166.76C464.328 167.315 465.12 167.642 465.952 167.688C466.845 167.688 467.238 167.317 467.238 166.595C467.238 164.973 463.08 165.002 463.08 162.157C463.08 160.328 464.345 159.162 466.342 159.162C466.909 159.154 467.471 159.27 467.989 159.501C468.507 159.732 468.968 160.073 469.341 160.501L468.182 161.829C467.964 161.589 467.699 161.394 467.405 161.257C467.11 161.121 466.791 161.044 466.466 161.033C465.709 161.033 465.297 161.339 465.297 162.048C465.297 163.551 469.456 163.42 469.456 166.434C469.456 168.245 468.259 169.555 465.952 169.555C464.759 169.529 463.61 169.096 462.696 168.328ZM465.467 157.62H467.004V159.891H465.467V157.62ZM465.467 168.611H467.004V171.101H465.467V168.611Z" fill="white"/>
<path d="M113.906 75.527C111.656 75.524 109.417 75.8469 107.259 76.4856C104.701 69.2038 99.9454 62.8973 93.6505 58.4378C87.3556 53.9783 79.8321 51.5861 72.1198 51.5919C64.4076 51.5976 56.8876 54.0011 50.5994 58.47C44.3112 62.9388 39.5653 69.2525 37.0179 76.538C35.9667 76.4 34.9078 76.3304 33.8476 76.3297C27.5086 76.331 21.4297 78.8523 16.9478 83.339C12.4659 87.8256 9.94804 93.9103 9.94804 100.255V100.301C9.95614 105.061 11.8512 109.625 15.2173 112.989C18.5834 116.352 23.1456 118.242 27.9024 118.243H119.367C124.092 118.244 128.627 116.38 131.988 113.056C135.348 109.732 137.264 105.216 137.32 100.487C137.329 99.7586 137.332 99.2313 137.332 98.9727C137.332 92.7546 134.864 86.7913 130.471 82.3945C126.078 77.9977 120.119 75.5274 113.906 75.527Z" fill="#9EBCEA"/>
<path d="M63.5659 87.362C66.24 84.6919 69.8632 83.1924 73.6405 83.1924C77.4179 83.1924 81.0411 84.6919 83.7152 87.362C83.9594 87.599 84.2869 87.7303 84.627 87.7277C84.9671 87.7251 85.2925 87.5887 85.533 87.348C85.7735 87.1073 85.9098 86.7816 85.9124 86.4412C85.915 86.1008 85.7838 85.773 85.547 85.5286C82.3866 82.3728 78.1045 80.6005 73.6402 80.6005C69.1758 80.6005 64.8937 82.3728 61.7333 85.5286C61.613 85.6491 61.5176 85.792 61.4526 85.9494C61.3875 86.1067 61.354 86.2753 61.354 86.4456C61.3541 86.6159 61.3876 86.7845 61.4528 86.9418C61.5179 87.0991 61.6134 87.242 61.7337 87.3624C61.854 87.4828 61.9968 87.5783 62.154 87.6434C62.3112 87.7085 62.4797 87.742 62.6498 87.742C62.82 87.742 62.9884 87.7084 63.1456 87.6432C63.3028 87.578 63.4456 87.4825 63.5659 87.362Z" fill="white"/>
<path d="M58.0704 81.8619C62.203 77.7348 67.8026 75.4171 73.6405 75.4171C79.4785 75.4171 85.0781 77.7348 89.2107 81.8619C89.3303 81.9853 89.4732 82.0837 89.6312 82.1514C89.7891 82.219 89.959 82.2545 90.1307 82.2558C90.3026 82.2572 90.4729 82.2243 90.6319 82.1591C90.7909 82.0939 90.9353 81.9977 91.0568 81.8761C91.1783 81.7545 91.2744 81.61 91.3395 81.4509C91.4046 81.2918 91.4375 81.1213 91.4362 80.9493C91.4348 80.7774 91.3993 80.6074 91.3318 80.4493C91.2642 80.2912 91.1659 80.1482 91.0425 80.0285C86.4237 75.416 80.1653 72.8256 73.6405 72.8256C67.1158 72.8256 60.8574 75.416 56.2386 80.0285C56.0018 80.2729 55.8706 80.6006 55.8732 80.941C55.8758 81.2814 56.0121 81.6071 56.2526 81.8478C56.4931 82.0885 56.8185 82.2249 57.1586 82.2275C57.4987 82.2302 57.8262 82.0988 58.0704 81.8619Z" fill="white"/>
<path d="M69.0606 92.8614C70.2762 91.6478 71.9232 90.9662 73.6402 90.9662C75.3572 90.9662 77.0041 91.6478 78.2197 92.8614C78.4639 93.0984 78.7914 93.2297 79.1315 93.2271C79.4716 93.2245 79.797 93.0881 80.0375 92.8474C80.278 92.6067 80.4143 92.281 80.4169 91.9406C80.4195 91.6002 80.2883 91.2724 80.0516 91.028C78.3499 89.3288 76.0443 88.3745 73.6405 88.3745C71.2368 88.3745 68.9312 89.3288 67.2295 91.028C66.9866 91.2711 66.8501 91.6007 66.85 91.9445C66.85 92.2882 66.9863 92.6179 67.2291 92.8611C67.472 93.1042 67.8013 93.2408 68.1448 93.2409C68.4883 93.2409 68.8177 93.1044 69.0606 92.8614Z" fill="white"/>
<path d="M73.6405 101.135C75.1382 101.135 76.3522 99.9202 76.3522 98.4213C76.3522 96.9224 75.1382 95.7073 73.6405 95.7073C72.1429 95.7073 70.9288 96.9224 70.9288 98.4213C70.9288 99.9202 72.1429 101.135 73.6405 101.135Z" fill="white"/>
<path d="M163.955 212.776C163.59 212.776 163.229 212.704 162.892 212.564C162.555 212.424 162.249 212.219 161.991 211.961C161.733 211.703 161.528 211.396 161.389 211.059C161.249 210.721 161.177 210.36 161.177 209.995V196.532C161.177 189.088 167.636 183.031 175.574 183.031C183.513 183.031 189.972 189.088 189.972 196.532V209.07C189.96 209.8 189.662 210.496 189.143 211.008C188.623 211.519 187.923 211.806 187.194 211.806C186.465 211.806 185.765 211.519 185.245 211.008C184.725 210.496 184.427 209.8 184.415 209.07V196.532C184.415 192.155 180.449 188.592 175.574 188.592C170.7 188.592 166.734 192.154 166.734 196.532V209.997C166.733 210.735 166.44 211.441 165.919 211.962C165.398 212.483 164.692 212.776 163.955 212.776Z" fill="#0CBC8B"/>
<path opacity="0.1" d="M163.955 212.776C163.59 212.776 163.229 212.704 162.892 212.564C162.555 212.424 162.249 212.219 161.991 211.961C161.733 211.703 161.528 211.396 161.389 211.059C161.249 210.721 161.177 210.36 161.177 209.995V196.532C161.177 189.088 167.636 183.031 175.574 183.031C183.513 183.031 189.972 189.088 189.972 196.532V209.07C189.96 209.8 189.662 210.496 189.143 211.008C188.623 211.519 187.923 211.806 187.194 211.806C186.465 211.806 185.765 211.519 185.245 211.008C184.725 210.496 184.427 209.8 184.415 209.07V196.532C184.415 192.155 180.449 188.592 175.574 188.592C170.7 188.592 166.734 192.154 166.734 196.532V209.997C166.733 210.735 166.44 211.441 165.919 211.962C165.398 212.483 164.692 212.776 163.955 212.776Z" fill="#0F1011"/>
<path d="M196.796 204.682H154.353C151.878 204.682 149.871 206.69 149.871 209.167V240.25C149.871 242.727 151.878 244.736 154.353 244.736H196.796C199.271 244.736 201.277 242.727 201.277 240.25V209.167C201.277 206.69 199.271 204.682 196.796 204.682Z" fill="#0CBC8B"/>
<path d="M171.35 219.408C171.35 220.202 171.573 220.98 171.994 221.653C172.414 222.326 173.016 222.867 173.729 223.214V229.712C173.729 230.202 173.924 230.672 174.27 231.018C174.616 231.364 175.085 231.559 175.574 231.559C176.064 231.559 176.533 231.364 176.879 231.018C177.225 230.672 177.419 230.202 177.419 229.712V223.214C178.098 222.885 178.676 222.379 179.094 221.75C179.512 221.121 179.754 220.392 179.794 219.638C179.835 218.883 179.673 218.132 179.326 217.462C178.978 216.791 178.458 216.226 177.818 215.825C177.179 215.424 176.444 215.202 175.69 215.182C174.935 215.161 174.189 215.343 173.529 215.709C172.869 216.075 172.318 216.611 171.935 217.261C171.552 217.912 171.35 218.653 171.35 219.408Z" fill="#0CBC8B"/>
<path opacity="0.1" d="M171.35 219.408C171.35 220.202 171.573 220.98 171.994 221.653C172.414 222.326 173.016 222.867 173.729 223.214V229.712C173.729 230.202 173.924 230.672 174.27 231.018C174.616 231.364 175.085 231.559 175.574 231.559C176.064 231.559 176.533 231.364 176.879 231.018C177.225 230.672 177.419 230.202 177.419 229.712V223.214C178.098 222.885 178.676 222.379 179.094 221.75C179.512 221.121 179.754 220.392 179.794 219.638C179.835 218.883 179.673 218.132 179.326 217.462C178.978 216.791 178.458 216.226 177.818 215.825C177.179 215.424 176.444 215.202 175.69 215.182C174.935 215.161 174.189 215.343 173.529 215.709C172.869 216.075 172.318 216.611 171.935 217.261C171.552 217.912 171.35 218.653 171.35 219.408Z" fill="#0F1011"/>
<path d="M464.92 280.082H430.087L414.617 264.598C414.526 264.518 414.453 264.42 414.403 264.31C414.353 264.2 414.327 264.08 414.327 263.959C414.327 263.839 414.353 263.719 414.403 263.609C414.453 263.499 414.526 263.401 414.617 263.321L430.759 247.165C430.838 247.074 430.936 247.001 431.046 246.951C431.156 246.901 431.275 246.875 431.396 246.875C431.517 246.875 431.636 246.901 431.746 246.951C431.856 247.001 431.954 247.074 432.033 247.165L432.806 247.939L435.993 251.128L441.83 256.97L444.149 259.291L449.987 265.137L455.94 271.095L458.53 273.687L462.387 277.547L464.92 280.082Z" fill="#8DDBE0"/>
<path opacity="0.47" d="M461.097 280.082H433.91L420.358 266.521C421.032 265.842 421.41 264.924 421.41 263.966C421.41 263.009 421.032 262.091 420.358 261.412L428.846 252.916C429.524 253.59 430.442 253.969 431.398 253.969C432.355 253.969 433.272 253.59 433.951 252.916L434.69 253.656L446.27 265.246L452.209 271.19L459.958 278.942L461.097 280.082Z" fill="white"/>
<path d="M431.013 265.772C432.259 265.772 433.269 264.761 433.269 263.514C433.269 262.267 432.259 261.256 431.013 261.256C429.767 261.256 428.757 262.267 428.757 263.514C428.757 264.761 429.767 265.772 431.013 265.772Z" fill="#8DDBE0"/>
<path d="M448.378 280.082H436.629C435.345 278.599 434.672 276.685 434.743 274.725C434.815 272.765 435.627 270.905 437.015 269.52C437.131 269.404 437.252 269.289 437.375 269.181C438.856 267.877 440.778 267.186 442.75 267.249C444.722 267.312 446.596 268.124 447.991 269.52C448.667 270.197 449.211 270.993 449.598 271.868C450.195 273.211 450.398 274.698 450.182 276.152C449.965 277.607 449.34 278.97 448.378 280.082Z" fill="#8DDBE0"/>
<path d="M438.77 278.073L439.58 277.265C439.355 276.976 439.171 276.657 439.031 276.318C438.879 275.973 438.792 275.602 438.773 275.226L440.088 274.942C440.127 275.263 440.205 275.578 440.323 275.88C440.426 276.137 440.579 276.371 440.775 276.567C440.937 276.758 441.161 276.886 441.409 276.926C441.518 276.928 441.627 276.905 441.727 276.859C441.826 276.814 441.915 276.747 441.986 276.663C442.054 276.598 442.106 276.518 442.14 276.43C442.175 276.342 442.189 276.248 442.184 276.154C442.171 275.925 442.131 275.698 442.067 275.478C441.994 275.231 441.915 274.968 441.82 274.699C441.726 274.429 441.661 274.15 441.626 273.866C441.591 273.589 441.605 273.307 441.667 273.035C441.743 272.739 441.901 272.471 442.123 272.262C442.468 271.891 442.935 271.656 443.438 271.6C443.939 271.563 444.436 271.703 444.844 271.996L445.675 271.164L446.458 271.948L445.643 272.764C445.851 273.035 446.002 273.346 446.087 273.677C446.162 273.989 446.195 274.31 446.184 274.63L444.908 274.711C444.903 274.466 444.864 274.222 444.791 273.988C444.717 273.775 444.594 273.583 444.432 273.426C444.285 273.258 444.086 273.145 443.866 273.103C443.762 273.098 443.659 273.117 443.563 273.159C443.468 273.202 443.384 273.265 443.318 273.346C443.254 273.408 443.206 273.484 443.177 273.568C443.147 273.653 443.137 273.742 443.148 273.831C443.17 274.052 443.217 274.27 443.289 274.48C443.367 274.723 443.455 274.978 443.552 275.245C443.648 275.512 443.715 275.79 443.75 276.073C443.785 276.355 443.767 276.641 443.698 276.917C443.61 277.226 443.44 277.505 443.205 277.725C442.856 278.092 442.395 278.333 441.895 278.408C441.365 278.464 440.832 278.325 440.397 278.016L439.558 278.857L438.77 278.073Z" fill="white"/>
<path d="M463.076 280.082H437.538L435.34 272.007L433.191 264.095V264.088L432.588 261.903V261.896L430.392 253.822L429.307 249.831C429.269 249.717 429.255 249.595 429.267 249.474C429.279 249.354 429.316 249.237 429.377 249.132C429.437 249.027 429.518 248.936 429.616 248.865C429.714 248.793 429.826 248.744 429.944 248.718L432.805 247.938L451.971 242.72C452.085 242.681 452.207 242.667 452.327 242.678C452.447 242.689 452.564 242.726 452.669 242.786C452.774 242.846 452.865 242.927 452.936 243.024C453.008 243.122 453.058 243.233 453.083 243.352L462.385 277.543L463.076 280.082Z" fill="#8DDBE0"/>
<path opacity="0.47" d="M460.27 280.082H440.344L439.907 278.501L439.58 277.266V277.259L439.01 275.176L437.376 269.178L433.342 254.351C433.837 254.22 434.298 253.981 434.691 253.653C435.066 253.34 435.374 252.956 435.598 252.522C435.822 252.089 435.956 251.615 435.993 251.128C436.025 250.72 435.986 250.309 435.878 249.914L447.465 246.758C447.719 247.68 448.327 248.465 449.156 248.94C449.985 249.415 450.968 249.543 451.892 249.296L458.529 273.683L459.959 278.942L460.27 280.082Z" fill="white"/>
<path d="M444.084 259.296C445.33 259.296 446.34 258.285 446.34 257.038C446.34 255.791 445.33 254.78 444.084 254.78C442.838 254.78 441.828 255.791 441.828 257.038C441.828 258.285 442.838 259.296 444.084 259.296Z" fill="#8DDBE0"/>
<path d="M455.822 274.802C455.489 276.025 454.859 277.147 453.988 278.068C453.118 278.989 452.034 279.68 450.833 280.082H445.849C444.671 279.675 443.607 278.993 442.744 278.093C442.373 277.711 442.045 277.288 441.768 276.832C441.367 276.193 441.063 275.498 440.866 274.769C440.507 273.451 440.502 272.062 440.851 270.742C441.2 269.421 441.891 268.217 442.855 267.25C443.798 266.29 444.978 265.597 446.275 265.241C446.289 265.234 446.302 265.234 446.316 265.228C448.303 264.689 450.423 264.961 452.21 265.983C453.997 267.006 455.306 268.696 455.85 270.683C455.884 270.819 455.918 270.954 455.945 271.09C456.214 272.319 456.172 273.595 455.822 274.802Z" fill="#8DDBE0"/>
<path d="M443.596 273.531L444.698 273.231C444.646 272.868 444.643 272.501 444.69 272.138C444.73 271.763 444.837 271.399 445.006 271.063L446.289 271.471C446.163 271.769 446.075 272.081 446.027 272.401C445.989 272.675 446.007 272.954 446.079 273.222C446.125 273.468 446.256 273.691 446.451 273.849C446.545 273.905 446.651 273.939 446.76 273.949C446.869 273.959 446.979 273.945 447.083 273.908C447.174 273.884 447.26 273.841 447.334 273.781C447.407 273.721 447.467 273.646 447.508 273.56C447.611 273.356 447.689 273.14 447.741 272.917C447.804 272.667 447.861 272.4 447.914 272.115C447.967 271.835 448.049 271.56 448.159 271.297C448.266 271.038 448.418 270.801 448.607 270.594C448.819 270.375 449.089 270.222 449.386 270.152C449.87 269.999 450.392 270.027 450.857 270.23C451.31 270.446 451.672 270.815 451.88 271.272L453.015 270.964L453.306 272.034L452.193 272.338C452.239 272.676 452.216 273.021 452.125 273.351C452.036 273.658 451.905 273.952 451.737 274.225L450.589 273.661C450.706 273.446 450.793 273.215 450.847 272.976C450.888 272.754 450.876 272.526 450.813 272.309C450.769 272.09 450.653 271.893 450.483 271.748C450.395 271.692 450.295 271.657 450.192 271.646C450.088 271.635 449.983 271.649 449.886 271.686C449.8 271.708 449.72 271.75 449.653 271.809C449.586 271.867 449.533 271.94 449.498 272.022C449.407 272.225 449.34 272.439 449.299 272.657C449.247 272.903 449.197 273.167 449.147 273.45C449.098 273.731 449.018 274.005 448.908 274.268C448.798 274.53 448.64 274.77 448.443 274.974C448.214 275.2 447.928 275.357 447.615 275.431C447.13 275.577 446.61 275.556 446.138 275.372C445.649 275.158 445.256 274.772 445.032 274.287L443.887 274.6L443.596 273.531Z" fill="white"/>
<path d="M303.943 194.009L310.118 240.471L343.04 219.81L303.943 194.009Z" fill="#9EBCEA"/>
<path d="M322.971 215.464L314.952 220.496L330.188 244.816L338.207 239.783L322.971 215.464Z" fill="#9EBCEA"/>
<path d="M15.3031 384.846H102.94C109.652 384.846 115.092 379.401 115.092 372.684L115.092 182.991C115.092 176.274 109.652 170.829 102.94 170.829H15.3031C8.59183 170.829 3.1513 176.274 3.1513 182.991L3.1513 372.684C3.1513 379.401 8.59183 384.846 15.3031 384.846Z" fill="white"/>
<path d="M102.94 388H15.3023C11.2454 387.995 7.35596 386.38 4.48727 383.509C1.61857 380.638 0.00481515 376.745 0 372.685L0 182.991C0.00520027 178.931 1.61912 175.039 4.48778 172.168C7.35644 169.297 11.2456 167.682 15.3023 167.677H102.94C106.997 167.682 110.886 169.297 113.755 172.169C116.624 175.04 118.238 178.933 118.243 182.994V372.685C118.238 376.745 116.624 380.638 113.755 383.509C110.886 386.38 106.997 387.995 102.94 388ZM15.3023 173.982C12.916 173.985 10.6281 174.935 8.94075 176.624C7.2534 178.313 6.30436 180.603 6.30186 182.991V372.685C6.30455 375.073 7.25368 377.363 8.94101 379.051C10.6283 380.74 12.9161 381.69 15.3023 381.693H102.94C105.326 381.69 107.614 380.74 109.301 379.052C110.989 377.363 111.938 375.073 111.941 372.685V182.991C111.938 180.603 110.989 178.313 109.301 176.624C107.614 174.935 105.326 173.985 102.94 173.982H15.3023Z" fill="#DEE8F5"/>
<path d="M72.7366 183.86H45.506C44.0278 183.86 42.6102 183.272 41.565 182.226C40.5198 181.18 39.9326 179.761 39.9326 178.282V170.829H78.31V178.282C78.31 179.761 77.7228 181.18 76.6776 182.226C75.6324 183.272 74.2148 183.86 72.7366 183.86Z" fill="#DEE8F5"/>
<path d="M97.3597 226.413H20.8837C18.3374 226.413 16.2732 228.479 16.2732 231.027V274.383C16.2732 276.931 18.3374 278.997 20.8837 278.997H97.3597C99.906 278.997 101.97 276.931 101.97 274.383V231.027C101.97 228.479 99.906 226.413 97.3597 226.413Z" fill="#262626"/>
<path d="M33.8644 233.519H25.8741C24.4926 233.519 23.3727 234.64 23.3727 236.022V240.68C23.3727 242.062 24.4926 243.183 25.8741 243.183H33.8644C35.2459 243.183 36.3658 242.062 36.3658 240.68V236.022C36.3658 234.64 35.2459 233.519 33.8644 233.519Z" fill="white"/>
<path d="M36.3658 234.591V236.859H31.9634L31.2538 236.148V233.519H35.2974C35.581 233.52 35.8527 233.633 36.053 233.834C36.2533 234.035 36.3658 234.307 36.3658 234.591Z" fill="#0CBC8B"/>
<path d="M36.3658 239.844V242.111C36.3658 242.395 36.2533 242.667 36.053 242.868C35.8527 243.069 35.581 243.183 35.2974 243.183H31.2538V240.483L31.9634 239.844H36.3658Z" fill="#0CBC8B"/>
<path d="M28.414 233.519V236.148L27.775 236.859H23.3727V234.591C23.3727 234.45 23.4004 234.311 23.4542 234.181C23.5081 234.051 23.587 233.933 23.6865 233.833C23.7859 233.733 23.904 233.654 24.034 233.601C24.164 233.547 24.3033 233.519 24.444 233.519H28.414Z" fill="#0CBC8B"/>
<path d="M28.414 240.483V243.183H24.444C24.1599 243.183 23.8874 243.07 23.6865 242.869C23.4856 242.668 23.3727 242.395 23.3727 242.111V239.844H27.775L28.414 240.483Z" fill="#0CBC8B"/>
<path d="M37.9174 252.211H24.4745C24.1871 252.204 23.914 252.084 23.7133 251.878C23.5126 251.672 23.4003 251.396 23.4003 251.108C23.4003 250.82 23.5126 250.544 23.7133 250.338C23.914 250.132 24.1871 250.012 24.4745 250.005H37.9174C38.2048 250.012 38.478 250.132 38.6787 250.338C38.8793 250.544 38.9917 250.82 38.9917 251.108C38.9917 251.396 38.8793 251.672 38.6787 251.878C38.478 252.084 38.2048 252.204 37.9174 252.211Z" fill="white"/>
<path d="M56.8397 252.211H43.3932C43.1058 252.204 42.8326 252.084 42.6319 251.878C42.4313 251.672 42.319 251.396 42.319 251.108C42.319 250.82 42.4313 250.544 42.6319 250.338C42.8326 250.132 43.1058 250.012 43.3932 250.005H56.8397C57.1271 250.012 57.4003 250.132 57.601 250.338C57.8017 250.544 57.914 250.82 57.914 251.108C57.914 251.396 57.8017 251.672 57.601 251.878C57.4003 252.084 57.1271 252.204 56.8397 252.211Z" fill="white"/>
<path d="M75.7562 252.211H62.3112C62.0237 252.204 61.7506 252.084 61.5499 251.878C61.3492 251.672 61.2369 251.396 61.2369 251.108C61.2369 250.82 61.3492 250.544 61.5499 250.338C61.7506 250.132 62.0237 250.012 62.3112 250.005H75.7562C76.0436 250.012 76.3168 250.132 76.5175 250.338C76.7181 250.544 76.8304 250.82 76.8304 251.108C76.8304 251.396 76.7181 251.672 76.5175 251.878C76.3168 252.084 76.0436 252.204 75.7562 252.211Z" fill="white"/>
<path d="M94.6741 252.211H81.2298C81.0827 252.215 80.9363 252.189 80.7993 252.135C80.6622 252.082 80.5373 252.001 80.4319 251.898C80.3265 251.795 80.2428 251.673 80.1856 251.537C80.1284 251.401 80.0989 251.255 80.0989 251.108C80.0989 250.961 80.1284 250.815 80.1856 250.679C80.2428 250.543 80.3265 250.421 80.4319 250.318C80.5373 250.215 80.6622 250.134 80.7993 250.08C80.9363 250.027 81.0827 250.001 81.2298 250.005H94.6741C94.8213 250.001 94.9677 250.027 95.1047 250.08C95.2417 250.134 95.3666 250.215 95.472 250.318C95.5774 250.421 95.6612 250.543 95.7184 250.679C95.7756 250.815 95.805 250.961 95.805 251.108C95.805 251.255 95.7756 251.401 95.7184 251.537C95.6612 251.673 95.5774 251.795 95.472 251.898C95.3666 252.001 95.2417 252.082 95.1047 252.135C94.9677 252.189 94.8213 252.215 94.6741 252.211Z" fill="white"/>
<path d="M94.8699 264.146C94.8699 265.654 94.2714 267.1 93.2062 268.166C92.1409 269.232 90.6961 269.831 89.1896 269.831C87.6831 269.831 86.2382 269.232 85.173 268.166C84.1077 267.1 83.5092 265.654 83.5092 264.146C83.5101 263.298 83.7021 262.462 84.0709 261.699C84.4398 260.936 84.976 260.266 85.6395 259.74C86.4693 259.06 87.4752 258.631 88.5398 258.502C89.6044 258.373 90.6836 258.55 91.6515 259.012C92.6194 259.474 93.436 260.202 94.0059 261.111C94.5758 262.02 94.8754 263.073 94.8699 264.146Z" fill="white"/>
<path d="M82.7997 268.551C81.9671 269.229 80.9596 269.657 79.894 269.785C78.8283 269.914 77.7482 269.737 76.7789 269.275C75.8096 268.814 74.9908 268.087 74.4175 267.179C73.8443 266.271 73.54 265.219 73.54 264.144C73.54 263.07 73.8443 262.018 74.4175 261.11C74.9908 260.202 75.8096 259.475 76.7789 259.014C77.7482 258.552 78.8283 258.375 79.894 258.504C80.9596 258.632 81.9671 259.06 82.7997 259.738C82.1421 260.27 81.6101 260.94 81.2418 261.702C80.8735 262.464 80.6781 263.298 80.6694 264.144C80.6699 264.992 80.8617 265.828 81.2306 266.592C81.5995 267.355 82.1358 268.025 82.7997 268.551Z" fill="#0CBC8B"/>
<path d="M20.399 311.492H97.8436V294.583H20.399V311.492Z" fill="#0CBC8B"/>
</g>
<defs>
<clipPath id="clip0_5_2">
<rect width="532" height="388" fill="white"/>
</clipPath>
</defs>
</svg>
